<svg width="17" height="17" viewBox="0 0 17 17" fill="none" xmlns="http://www.w3.org/2000/svg">
<path d="M14.0968 1.84142H13.5847V1.28265C13.5847 0.575093 13.0264 0 12.3394 0C11.6519 0 11.0941 0.575093 11.0941 1.28265V1.84095H9.81618V1.28265C9.81618 0.575093 9.25789 0 8.57088 0C7.88386 0 7.32557 0.575093 7.32557 1.28265V1.84095H6.04762V1.28265C6.04762 0.575093 5.48934 0 4.80232 0C4.11531 0 3.55702 0.575093 3.55702 1.28265V1.84095H2.90312C1.81033 1.84095 0.920898 2.73041 0.920898 3.82323V4.75606H2.08691H14.9131H16.0791V3.82323C16.0791 2.73088 15.1901 1.84142 14.0968 1.84142ZM5.34802 3.56623C5.34802 3.88759 5.10315 4.14925 4.80232 4.14925C4.50149 4.14925 4.25663 3.88759 4.25663 3.56623V1.28265C4.25663 0.961287 4.50149 0.699627 4.80232 0.699627C5.10315 0.699627 5.34802 0.961287 5.34802 1.28265V3.56623ZM9.11657 3.56623C9.11657 3.88759 8.87171 4.14925 8.57088 4.14925C8.27004 4.14925 8.02518 3.88759 8.02518 3.56623V1.28265C8.02518 0.961287 8.27004 0.699627 8.57088 0.699627C8.87171 0.699627 9.11657 0.961287 9.11657 1.28265V3.56623ZM12.8851 3.56623C12.8851 3.88759 12.6403 4.14925 12.3394 4.14925C12.0381 4.14925 11.7937 3.88759 11.7937 3.56623V1.28265C11.7937 0.961287 12.0381 0.699627 12.3394 0.699627C12.6403 0.699627 12.8851 0.961287 12.8851 1.28265V3.56623Z" fill="#C6D8E1"/>
<path d="M0.920898 15.0171C0.920898 16.1099 1.81033 16.9994 2.90312 16.9994H14.0968C15.1901 16.9994 16.0791 16.1099 16.0791 15.0171V5.64258H0.920898V15.0171ZM11.72 7.14211H13.8636V9.04883H11.72V7.14211ZM11.72 9.68735H13.8636V11.5931H11.72V9.68735ZM11.72 12.2331H13.8636V14.1388H11.72V12.2331ZM8.86005 7.14211H11.0032V9.04883H8.86005V7.14211ZM8.86005 9.68735H11.0032V11.5931H8.86005V9.68735ZM8.86005 12.2331H11.0032V14.1388H8.86005V12.2331ZM5.99772 7.14211H8.14132V9.04883H5.99772V7.14211ZM5.99772 9.68735H8.14132V11.5931H5.99772V9.68735ZM5.99772 12.2331H8.14132V14.1388H5.99772V12.2331ZM3.13632 9.68735H5.27992V11.5931H3.13632V9.68735ZM3.13632 12.2331H5.27992V14.1388H3.13632V12.2331Z" fill="#C6D8E1"/>
</svg>
