<svg width="17" height="17" viewBox="0 0 17 17" fill="none" xmlns="http://www.w3.org/2000/svg">
<path d="M14.0978 1.84142H13.5857V1.28265C13.5857 0.575093 13.0274 0 12.3404 0C11.6529 0 11.0951 0.575093 11.0951 1.28265V1.84095H9.81715V1.28265C9.81715 0.575093 9.25887 0 8.57185 0C7.88484 0 7.32655 0.575093 7.32655 1.28265V1.84095H6.0486V1.28265C6.0486 0.575093 5.49031 0 4.8033 0C4.11628 0 3.558 0.575093 3.558 1.28265V1.84095H2.9041C1.81131 1.84095 0.921875 2.73041 0.921875 3.82323V4.75606H2.08789H14.914H16.08V3.82323C16.08 2.73088 15.1911 1.84142 14.0978 1.84142ZM5.34899 3.56623C5.34899 3.88759 5.10413 4.14925 4.8033 4.14925C4.50247 4.14925 4.2576 3.88759 4.2576 3.56623V1.28265C4.2576 0.961287 4.50247 0.699627 4.8033 0.699627C5.10413 0.699627 5.34899 0.961287 5.34899 1.28265V3.56623ZM9.11755 3.56623C9.11755 3.88759 8.87268 4.14925 8.57185 4.14925C8.27102 4.14925 8.02616 3.88759 8.02616 3.56623V1.28265C8.02616 0.961287 8.27102 0.699627 8.57185 0.699627C8.87268 0.699627 9.11755 0.961287 9.11755 1.28265V3.56623ZM12.8861 3.56623C12.8861 3.88759 12.6412 4.14925 12.3404 4.14925C12.0391 4.14925 11.7947 3.88759 11.7947 3.56623V1.28265C11.7947 0.961287 12.0391 0.699627 12.3404 0.699627C12.6412 0.699627 12.8861 0.961287 12.8861 1.28265V3.56623V3.56623Z" fill="#C6D8E1"/>
<path d="M0.921875 15.0171C0.921875 16.1099 1.81131 16.9994 2.9041 16.9994H14.0978C15.1911 16.9994 16.08 16.1099 16.08 15.0171V5.64258H0.921875V15.0171V15.0171ZM11.721 7.14211H13.8646V9.04883H11.721V7.14211ZM11.721 9.68735H13.8646V11.5931H11.721V9.68735ZM11.721 12.2331H13.8646V14.1388H11.721V12.2331ZM8.86102 7.14211H11.0042V9.04883H8.86102V7.14211ZM8.86102 9.68735H11.0042V11.5931H8.86102V9.68735ZM8.86102 12.2331H11.0042V14.1388H8.86102V12.2331ZM5.99869 7.14211H8.14229V9.04883H5.99869V7.14211V7.14211ZM5.99869 9.68735H8.14229V11.5931H5.99869V9.68735V9.68735ZM5.99869 12.2331H8.14229V14.1388H5.99869V12.2331V12.2331ZM3.1373 9.68735H5.2809V11.5931H3.1373V9.68735ZM3.1373 12.2331H5.2809V14.1388H3.1373V12.2331Z" fill="#C6D8E1"/>
</svg>
