<svg width="26" height="30" viewBox="0 0 26 30" fill="none" xmlns="http://www.w3.org/2000/svg">
<path d="M20.1016 20.5504C19.8766 20.5504 19.6512 20.4643 19.4793 20.2919C19.1361 19.9475 19.1361 19.3887 19.4793 19.0442L22.6323 15.8825H10.077C9.59136 15.8825 9.19727 15.4875 9.19727 15.0001C9.19727 14.5128 9.59136 14.1178 10.077 14.1178H22.5801L19.4743 10.951C19.1347 10.6045 19.1379 10.0478 19.482 9.70561C19.8252 9.36372 20.3806 9.36418 20.7238 9.70837L25.3784 14.3764C25.5434 14.5418 25.636 14.7663 25.636 15.0002C25.636 15.2341 25.5434 15.4586 25.3784 15.624L20.7238 20.292C20.552 20.4642 20.3265 20.5504 20.1016 20.5504Z" fill="#C6D8E1"/>
<path d="M18.556 30H1.45888C0.973193 30 0.579102 29.605 0.579102 29.1177V0.882345C0.579102 0.394979 0.973193 0 1.45888 0H18.556C19.0417 0 19.4358 0.394979 19.4358 0.882345V6.0496C19.4358 6.53696 19.0417 6.93194 18.556 6.93194C18.0704 6.93194 17.6763 6.53696 17.6763 6.0496V1.76469H2.33866V28.2353H17.6763V23.9504C17.6763 23.463 18.0704 23.0681 18.556 23.0681C19.0417 23.0681 19.4358 23.463 19.4358 23.9504V29.1177C19.4359 29.605 19.0418 30 18.556 30Z" fill="#C6D8E1"/>
</svg>
