<svg width="15" height="15" viewBox="0 0 15 15" fill="none" xmlns="http://www.w3.org/2000/svg">
<path d="M9.86294 5.94149C10.8575 5.03478 12.2024 3.80851 12.3249 0.878906H13.2129V0H1.78711V0.878906H2.67507C2.79765 3.80851 4.14255 5.03478 5.13706 5.94149C5.80418 6.54973 6.18164 6.922 6.18164 7.5C6.18164 8.078 5.80418 8.45027 5.13706 9.05851C4.14255 9.96521 2.79765 11.1915 2.67507 14.1211H1.78711V15H13.2129V14.1211H12.3249C12.2024 11.1915 10.8575 9.96521 9.86294 9.05851C9.19582 8.45027 8.81836 8.078 8.81836 7.5C8.81836 6.922 9.19582 6.54973 9.86294 5.94149ZM7.06055 10.7941C6.92481 10.8221 6.79072 10.8628 6.65985 10.917L3.96814 12.0308C4.40771 10.9131 5.1157 10.2674 5.72921 9.70802C6.41388 9.08379 7.06055 8.49419 7.06055 7.5V10.7941ZM9.27079 9.70802C9.8843 10.2674 10.5923 10.9131 11.0319 12.0308L8.34015 10.917C8.20928 10.8628 8.07519 10.8221 7.93945 10.7941V7.5C7.93945 8.49419 8.58612 9.08379 9.27079 9.70802ZM3.95271 2.92969C3.74022 2.37601 3.59347 1.70748 3.55506 0.878906H11.4449C11.4065 1.70748 11.2598 2.37601 11.0473 2.92969H3.95271Z" fill="white"/>
</svg>
