<svg width="25" height="29" viewBox="0 0 25 29" fill="none" xmlns="http://www.w3.org/2000/svg">
<path d="M22.2222 0.422448C22.219 0.38964 22.2123 0.357195 22.2024 0.325778C22.1903 0.29442 22.1749 0.264453 22.1565 0.236358C22.1485 0.217628 22.1391 0.199563 22.1284 0.182223C22.1231 0.174973 22.1144 0.172072 22.1086 0.165789C22.085 0.140896 22.0588 0.118723 22.0303 0.09957C22.0081 0.081384 21.9843 0.0651918 21.9592 0.051235C21.9318 0.0396951 21.9033 0.0306323 21.8742 0.0241675C21.8427 0.0144401 21.8103 0.00797527 21.7775 0.0048335C21.7678 0.0048335 21.7601 0 21.7509 0C21.7306 0.00283968 21.7104 0.00682731 21.6905 0.0120837C21.6577 0.0154068 21.6253 0.0220528 21.5938 0.0319011C21.5627 0.0446494 21.533 0.0608416 21.5054 0.080236C21.4865 0.0880904 21.4682 0.0975158 21.4508 0.10827L19.3342 1.79806L17.2171 0.106337C17.0406 -0.0348012 16.7899 -0.0348012 16.6134 0.106337L14.4958 1.79806L12.3826 0.106337C12.206 -0.0350428 11.9551 -0.0350428 11.7785 0.106337L9.66429 1.79806L7.5506 0.106337C7.374 -0.0350428 7.12302 -0.0350428 6.94641 0.106337L4.83369 1.79758L2.72 0.105854C2.70284 0.0951594 2.6849 0.0857945 2.66635 0.0778193C2.63802 0.0585457 2.60775 0.0423535 2.57597 0.0294843C2.54455 0.019334 2.51216 0.0126879 2.4793 0.00966699C2.45875 0.00519601 2.43791 0.0019334 2.41694 0C2.40776 0 2.40051 0.0048335 2.39133 0.00531684C2.35846 0.00821694 2.32601 0.014863 2.29466 0.0251342C2.2662 0.0312969 2.23835 0.0399972 2.21152 0.051235C2.18614 0.0651918 2.16204 0.081384 2.1395 0.09957C2.11135 0.118481 2.08524 0.140353 2.06168 0.164822C2.05588 0.171589 2.04766 0.174489 2.04235 0.181256C2.03202 0.198536 2.02283 0.21648 2.0148 0.234908C1.99534 0.263123 1.97915 0.293454 1.96646 0.325294C1.95643 0.356712 1.94997 0.389096 1.94713 0.421964C1.94121 0.442084 1.93668 0.462626 1.93359 0.48335V26.5842C1.93359 26.8512 2.15001 27.0676 2.41694 27.0676H21.7509C22.0179 27.0676 22.2343 26.8512 22.2343 26.5842V0.48335C22.2315 0.462807 22.2274 0.442506 22.2222 0.422448ZM21.2676 26.1009H2.90029V1.4892L4.53063 2.79424C4.7073 2.9355 4.95833 2.93526 5.13482 2.79376L7.25044 1.10252L9.36413 2.79424C9.54073 2.93562 9.79171 2.93562 9.96831 2.79424L12.0825 1.10252L14.1957 2.79424C14.3723 2.93562 14.6233 2.93562 14.7999 2.79424L16.915 1.10252L19.0321 2.79424C19.2085 2.93508 19.4589 2.93508 19.6353 2.79424L21.2676 1.48823V26.1009Z" fill="#1EA133"/>
<path d="M23.6841 22.2334C23.4172 22.2334 23.2008 22.4498 23.2008 22.7167V28.0336H0.966699V22.7167C0.966699 22.4498 0.750279 22.2334 0.48335 22.2334C0.21642 22.2334 0 22.4498 0 22.7167V28.5169C0 28.7839 0.21642 29.0003 0.48335 29.0003H23.6841C23.9511 29.0003 24.1675 28.7839 24.1675 28.5169V22.7167C24.1675 22.4498 23.9511 22.2334 23.6841 22.2334Z" fill="#1EA133"/>
<path d="M7.25073 16.9209H5.31733C5.0504 16.9209 4.83398 17.1373 4.83398 17.4042C4.83398 17.6712 5.0504 17.8876 5.31733 17.8876H7.25073C7.51766 17.8876 7.73408 17.6712 7.73408 17.4042C7.73408 17.1373 7.51766 16.9209 7.25073 16.9209Z" fill="#1EA133"/>
<path d="M18.8515 16.9209H9.18452C8.91759 16.9209 8.70117 17.1373 8.70117 17.4042C8.70117 17.6712 8.91759 17.8876 9.18452 17.8876H18.8515C19.1184 17.8876 19.3349 17.6712 19.3349 17.4042C19.3349 17.1373 19.1184 16.9209 18.8515 16.9209Z" fill="#1EA133"/>
<path d="M7.25073 14.0195H5.31733C5.0504 14.0195 4.83398 14.236 4.83398 14.5029C4.83398 14.7698 5.0504 14.9862 5.31733 14.9862H7.25073C7.51766 14.9862 7.73408 14.7698 7.73408 14.5029C7.73408 14.236 7.51766 14.0195 7.25073 14.0195Z" fill="#1EA133"/>
<path d="M18.8515 14.0195H9.18452C8.91759 14.0195 8.70117 14.236 8.70117 14.5029C8.70117 14.7698 8.91759 14.9862 9.18452 14.9862H18.8515C19.1184 14.9862 19.3349 14.7698 19.3349 14.5029C19.3349 14.236 19.1184 14.0195 18.8515 14.0195Z" fill="#1EA133"/>
<path d="M7.25073 11.1182H5.31733C5.0504 11.1182 4.83398 11.3346 4.83398 11.6015C4.83398 11.8684 5.0504 12.0849 5.31733 12.0849H7.25073C7.51766 12.0849 7.73408 11.8684 7.73408 11.6015C7.73408 11.3346 7.51766 11.1182 7.25073 11.1182Z" fill="#1EA133"/>
<path d="M18.8515 11.1182H9.18452C8.91759 11.1182 8.70117 11.3346 8.70117 11.6015C8.70117 11.8684 8.91759 12.0849 9.18452 12.0849H18.8515C19.1184 12.0849 19.3349 11.8684 19.3349 11.6015C19.3349 11.3346 19.1184 11.1182 18.8515 11.1182Z" fill="#1EA133"/>
</svg>
