<svg width="15" height="15" viewBox="0 0 15 15" fill="none" xmlns="http://www.w3.org/2000/svg">
<g clip-path="url(#clip0_85_4281)">
<path d="M14.8886 5.17246C14.8052 5.07892 14.6858 5.02539 14.5605 5.02539C14.1622 5.02539 0.837769 5.02539 0.439448 5.02539C0.314146 5.02539 0.194761 5.07889 0.111382 5.17246C0.0280032 5.26601 -0.0114597 5.39072 0.00289581 5.51523L0.881802 13.1324C0.907378 13.3541 1.09514 13.5215 1.31835 13.5215H13.6816C13.9048 13.5215 14.0926 13.3541 14.1182 13.1324C14.141 12.9344 14.9967 5.51875 14.9971 5.51518C15.0114 5.39069 14.972 5.26598 14.8886 5.17246Z" fill="white"/>
<path d="M13.7988 1.91992C13.7988 1.67723 13.6021 1.48047 13.3594 1.48047H7.5C7.31921 1.48047 7.15688 1.59121 7.0909 1.75946L6.61438 2.97461H1.64063C1.39793 2.97461 1.20117 3.17137 1.20117 3.41406V4.14648H13.7988V1.91992Z" fill="white"/>
</g>
<defs>
<clipPath id="clip0_85_4281">
<rect width="15" height="15" fill="white"/>
</clipPath>
</defs>
</svg>
