<svg width="12" height="15" viewBox="0 0 12 15" fill="none" xmlns="http://www.w3.org/2000/svg">
<path d="M11.6201 5.61015H11.026V4.19279C11.026 1.88098 8.77132 0 6 0C3.22868 0 0.973979 1.88098 0.973979 4.19279V5.61015H0.379867C0.17018 5.61015 0 5.75212 0 5.92705V14.6831C0 14.858 0.17018 15 0.379867 15H11.6201C11.8298 15 12 14.858 12 14.6831V5.92705C12 5.75212 11.83 5.61015 11.6201 5.61015ZM6 1.77165C7.60038 1.77165 8.90237 2.85768 8.90237 4.19279V5.61015H3.09763V4.19279C3.09763 2.85784 4.39962 1.77165 6 1.77165Z" fill="white"/>
</svg>
