<svg width="15" height="15" viewBox="0 0 15 15" fill="none" xmlns="http://www.w3.org/2000/svg">
<path d="M13.8885 0H5.59704C5.00611 0 4.52539 0.48075 4.52539 1.07165V3.58689C4.75316 3.58689 9.22333 3.58689 9.40179 3.58689C10.5321 3.58689 11.4517 4.50649 11.4517 5.63684C11.4517 5.84843 11.4517 10.3811 11.4517 10.4348H13.8885C14.4794 10.4348 14.9602 9.9541 14.9602 9.36316V1.07165C14.9601 0.48075 14.4794 0 13.8885 0Z" fill="white"/>
<path d="M9.40219 4.56543H1.11075C0.519845 4.56543 0.0390625 5.04618 0.0390625 5.63711V13.9286C0.0390951 14.5195 0.519813 15.0003 1.11075 15.0003H9.40223C9.99316 15.0003 10.4739 14.5195 10.4739 13.9286V5.63711C10.4739 5.04618 9.99313 4.56543 9.40219 4.56543Z" fill="white"/>
</svg>
