<svg width="15" height="15" viewBox="0 0 15 15" fill="none" xmlns="http://www.w3.org/2000/svg">
<path d="M14.3671 0.476395H9.94387C9.91231 0.209043 9.64246 0 9.31435 0H5.68565C5.35742 0 5.08771 0.209043 5.05595 0.476395H0.63292C0.283333 0.476395 0 0.713379 0 1.00585V2.01163C0 2.30413 0.283333 2.54104 0.63292 2.54104H14.3671C14.7167 2.54104 15 2.30411 15 2.01163V1.00588C15 0.713379 14.7167 0.476395 14.3671 0.476395Z" fill="white"/>
<path d="M1.32715 14.4707C1.32715 14.7629 1.61036 15.0001 1.96007 15.0001H13.0404C13.3901 15.0001 13.6733 14.763 13.6733 14.4707V3.55811H1.32715V14.4707Z" fill="white"/>
</svg>
