<svg width="15" height="15" viewBox="0 0 15 15" fill="none" xmlns="http://www.w3.org/2000/svg">
<path d="M7.5 0C3.36425 0 0 3.36457 0 7.5C0 11.6354 3.36425 15 7.5 15C11.6358 15 15 11.6354 15 7.5C15 3.36457 11.6358 0 7.5 0ZM7.5 12.5C4.74305 12.5 2.49999 10.257 2.49999 7.5C2.49999 6.57434 2.75736 5.70961 3.19767 4.96523L10.0348 11.8023C9.29039 12.2426 8.42566 12.5 7.5 12.5ZM11.8023 10.0348L4.96523 3.19767C5.70961 2.75736 6.57431 2.49999 7.5 2.49999C10.257 2.49999 12.5 4.74305 12.5 7.5C12.5 8.42566 12.2426 9.29039 11.8023 10.0348Z" fill="white"/>
</svg>
