<svg width="30" height="30" viewBox="0 0 30 30" fill="none" xmlns="http://www.w3.org/2000/svg">
<g clip-path="url(#clip0_1817_64752)">
<path d="M23.8997 3.68939C18.9808 -1.22953 11.019 -1.23006 6.09954 3.68939C1.18074 8.60813 1.17998 16.5701 6.09954 21.4895L14.3344 29.7244C14.7019 30.0918 15.2975 30.0918 15.6648 29.7244L23.8997 21.4895C28.8185 16.5708 28.8192 8.60889 23.8997 3.68939ZM18.9783 16.5681C16.7795 18.7669 13.2202 18.7674 11.0209 16.5681C8.82206 14.3692 8.82171 10.81 11.0209 8.61083C13.2196 6.41203 16.779 6.41161 18.9782 8.61083C21.1771 10.8096 21.1774 14.3689 18.9783 16.5681Z" fill="#1EA133"/>
</g>
<defs>
<clipPath id="clip0_1817_64752">
<rect width="30" height="30" fill="white"/>
</clipPath>
</defs>
</svg>
