<svg width="15" height="15" viewBox="0 0 15 15" fill="none" xmlns="http://www.w3.org/2000/svg">
<path fill-rule="evenodd" clip-rule="evenodd" d="M7.5 15C11.6421 15 15 11.6421 15 7.5C15 3.35786 11.6421 0 7.5 0C3.35786 0 0 3.35786 0 7.5C0 11.6421 3.35786 15 7.5 15ZM11.3613 8.34048H7.93512V11.7666C7.93512 12.037 7.71598 12.2561 7.44566 12.2561C7.17534 12.2561 6.95622 12.0369 6.9562 11.7666L6.9562 8.34048L3.53005 8.3405C3.25972 8.34048 3.04061 8.12137 3.04059 7.85104C3.04061 7.58072 3.25976 7.36157 3.53004 7.36159H6.95618V3.93545C6.9562 3.66513 7.17534 3.44599 7.44564 3.44599C7.71596 3.44601 7.93508 3.66513 7.9351 3.93545V7.36159L11.3613 7.36157C11.6316 7.36159 11.8507 7.58072 11.8507 7.85102C11.8507 8.12137 11.6316 8.34048 11.3613 8.34048Z" fill="white"/>
</svg>
