<svg width="15" height="15" viewBox="0 0 15 15" fill="none" xmlns="http://www.w3.org/2000/svg">
<path d="M9.81928 5.09667C10.3074 4.5371 10.576 3.81932 10.576 3.07606C10.576 1.17572 8.86587 -0.291409 6.94145 0.0494019C5.71303 0.266785 4.69906 1.27548 4.47582 2.50243C4.30092 3.46395 4.57192 4.42548 5.21879 5.14003C5.4892 5.43856 5.58705 5.8868 5.47426 6.31073L5.2686 7.08973H6.17768L6.32387 6.53573C6.51518 5.81737 6.34555 5.07499 5.87035 4.55028C5.40805 4.03964 5.21498 3.35057 5.34067 2.65975C5.49916 1.787 6.22045 1.06952 7.09467 0.914832C8.50552 0.665281 9.69711 1.74499 9.69711 3.07606C9.69711 3.60692 9.50522 4.11962 9.15688 4.51923C8.6685 5.07909 8.48891 5.8329 8.67553 6.53485L8.82201 7.08973H9.7308L9.52514 6.30985C9.41323 5.88973 9.52338 5.43622 9.81928 5.09667Z" fill="white"/>
<path d="M4.32227 14.1211H4.86279V14.5605C4.86279 14.8031 5.05967 15 5.30224 15H9.69677C9.93934 15 10.1362 14.8031 10.1362 14.5605V14.1211H10.6767L8.82167 7.08984H6.17734L4.32227 14.1211Z" fill="white"/>
<path d="M14.561 7.08984H9.73145L11.5865 14.1211H11.895V14.5605C11.895 14.8031 12.0919 15 12.3345 15H14.561C14.8036 15 15.0005 14.8031 15.0005 14.5605V7.5293C15.0005 7.28672 14.8036 7.08984 14.561 7.08984Z" fill="white"/>
<path d="M0 7.5293V14.5605C0 14.8031 0.196875 15 0.439453 15H2.66602C2.90859 15 3.10547 14.8031 3.10547 14.5605V14.1211H3.41396L5.26875 7.08984H0.439453C0.196875 7.08984 0 7.28672 0 7.5293Z" fill="white"/>
</svg>
