<svg width="40" height="40" viewBox="0 0 40 40" fill="none" xmlns="http://www.w3.org/2000/svg">
  <g clip-path="url(#clip0_1287:3990)">
    <path d="M25.75 14.2505L14.25 25.7505" stroke="#F24E50" stroke-width="1.5" stroke-linecap="round"
      stroke-linejoin="round" />
    <path d="M14.25 14.2505L25.75 25.7505" stroke="#F24E50" stroke-width="1.5" stroke-linecap="round"
      stroke-linejoin="round" />
    <mask id="path-3-inside-1_1287:3990" fill="white">
      <path
        d="M40 20.0005C40 31.0462 31.0457 40.0005 20 40.0005C8.9543 40.0005 0 31.0462 0 20.0005C0 8.95479 8.9543 0.000488281 20 0.000488281C31.0457 0.000488281 40 8.95479 40 20.0005ZM1.58811 20.0005C1.58811 30.1691 9.83139 38.4124 20 38.4124C30.1686 38.4124 38.4119 30.1691 38.4119 20.0005C38.4119 9.83188 30.1686 1.58859 20 1.58859C9.83139 1.58859 1.58811 9.83188 1.58811 20.0005Z" />
    </mask>
    <path
      d="M40 20.0005C40 31.0462 31.0457 40.0005 20 40.0005C8.9543 40.0005 0 31.0462 0 20.0005C0 8.95479 8.9543 0.000488281 20 0.000488281C31.0457 0.000488281 40 8.95479 40 20.0005ZM1.58811 20.0005C1.58811 30.1691 9.83139 38.4124 20 38.4124C30.1686 38.4124 38.4119 30.1691 38.4119 20.0005C38.4119 9.83188 30.1686 1.58859 20 1.58859C9.83139 1.58859 1.58811 9.83188 1.58811 20.0005Z"
      stroke="#F24E50" stroke-width="2" mask="url(#path-3-inside-1_1287:3990)" />
  </g>
  <defs>
    <clipPath id="clip0_1287:3990">
      <rect width="40" height="40" fill="white" transform="translate(0 0.000488281)" />
    </clipPath>
  </defs>
</svg>