<svg width="40" height="40" viewBox="0 0 40 40" fill="none" xmlns="http://www.w3.org/2000/svg">
  <mask id="path-1-inside-1_1287:3928" fill="white">
    <path
      d="M40 20C40 31.0457 31.0457 40 20 40C8.9543 40 0 31.0457 0 20C0 8.9543 8.9543 0 20 0C31.0457 0 40 8.9543 40 20ZM1.58811 20C1.58811 30.1686 9.83139 38.4119 20 38.4119C30.1686 38.4119 38.4119 30.1686 38.4119 20C38.4119 9.83139 30.1686 1.58811 20 1.58811C9.83139 1.58811 1.58811 9.83139 1.58811 20Z" />
  </mask>
  <path
    d="M40 20C40 31.0457 31.0457 40 20 40C8.9543 40 0 31.0457 0 20C0 8.9543 8.9543 0 20 0C31.0457 0 40 8.9543 40 20ZM1.58811 20C1.58811 30.1686 9.83139 38.4119 20 38.4119C30.1686 38.4119 38.4119 30.1686 38.4119 20C38.4119 9.83139 30.1686 1.58811 20 1.58811C9.83139 1.58811 1.58811 9.83139 1.58811 20Z"
    stroke="#68AD3E" stroke-width="2" mask="url(#path-1-inside-1_1287:3928)" />
  <path d="M27.6663 14.25L17.1247 24.7917L12.333 20" stroke="#68AD3E" stroke-width="1.5" stroke-linecap="round"
    stroke-linejoin="round" />
</svg>