<svg width="40" height="40" viewBox="0 0 40 40" fill="none" xmlns="http://www.w3.org/2000/svg">
  <mask id="path-1-inside-1_1287:3950" fill="white">
    <path
      d="M40 20C40 31.0457 31.0457 40 20 40C8.95431 40 0 31.0457 0 20C0 8.95431 8.95431 0 20 0C31.0457 0 40 8.95431 40 20ZM1.58811 20C1.58811 30.1686 9.83139 38.4119 20 38.4119C30.1686 38.4119 38.4119 30.1686 38.4119 20C38.4119 9.83139 30.1686 1.58811 20 1.58811C9.83139 1.58811 1.58811 9.83139 1.58811 20Z" />
  </mask>
  <path
    d="M40 20C40 31.0457 31.0457 40 20 40C8.95431 40 0 31.0457 0 20C0 8.95431 8.95431 0 20 0C31.0457 0 40 8.95431 40 20ZM1.58811 20C1.58811 30.1686 9.83139 38.4119 20 38.4119C30.1686 38.4119 38.4119 30.1686 38.4119 20C38.4119 9.83139 30.1686 1.58811 20 1.58811C9.83139 1.58811 1.58811 9.83139 1.58811 20Z"
    stroke="#FFE568" stroke-width="2" mask="url(#path-1-inside-1_1287:3950)" />
  <path fill-rule="evenodd" clip-rule="evenodd"
    d="M21.2893 11.478C21.2893 10.7666 20.7127 10.1899 20.0013 10.1899C19.2899 10.1899 18.7133 10.7666 18.7133 11.478V21.3491C18.7133 22.0604 19.2899 22.6371 20.0013 22.6371C20.7127 22.6371 21.2893 22.0604 21.2893 21.3491V11.478ZM22.1152 27.6948C22.1152 28.863 21.1682 29.81 20 29.81C18.8318 29.81 17.8848 28.863 17.8848 27.6948C17.8848 26.5266 18.8318 25.5795 20 25.5795C21.1682 25.5795 22.1152 26.5266 22.1152 27.6948Z"
    fill="#FFE568" />
</svg>