<svg width="30" height="30" viewBox="0 0 30 30" fill="none" xmlns="http://www.w3.org/2000/svg">
<g clip-path="url(#clip0_1251_1753)">
        <path d="M23.0957 29.1204H22.0367V24.8625C22.0367 24.3182 21.5938 23.8756 21.0495 23.8756H20.8488V22.3656C20.8488 21.963 20.5213 21.6353 20.1184 21.6353H19.513V16.2209C19.513 15.731 19.1148 15.3328 18.6252 15.3328H17.2828V14.1412H22.1342C22.5409 14.1412 22.8716 13.8105 22.8716 13.4038V13.1795C22.8716 12.4196 22.2534 11.8014 21.4935 11.8014H20.914C20.8733 10.589 19.8742 9.6151 18.6522 9.6151C18.1404 9.6151 17.6648 9.78653 17.2828 10.077V9.7506C17.2828 9.43748 17.0633 9.17496 16.7699 9.10789V7.6664C16.7699 7.21756 16.4048 6.85249 15.9562 6.85249H15.6976V5.79597C15.6976 5.34874 15.3334 4.98482 14.8862 4.98482H13.406V0.439682C13.406 0.196838 13.2092 0 12.9663 0C12.7233 0 12.5264 0.196838 12.5264 0.439682V4.98482H10.9876C10.5402 4.98482 10.1763 5.34874 10.1763 5.79597V6.85249H9.91762C9.46878 6.85249 9.10371 7.21756 9.10371 7.6664V9.10789C8.81052 9.17496 8.59102 9.43748 8.59102 9.75082V13.3237H7.24863C6.75905 13.3237 6.36056 13.7219 6.36056 14.2115V18.1041H5.52332C5.28047 18.1041 5.08363 18.3009 5.08363 18.544V20.3444H4.66478C4.17085 20.3444 3.76894 20.7461 3.76894 21.2402V29.1204H2.70944C2.46637 29.1204 2.26953 29.3175 2.26953 29.5603C2.26953 29.8032 2.46637 30 2.70944 30H23.0957C23.3386 30 23.5354 29.8032 23.5354 29.5603C23.5354 29.3175 23.3386 29.1204 23.0957 29.1204ZM19.9694 23.8756H18.8809V22.5149H19.9694V23.8756ZM18.6522 10.4947C19.4151 10.4947 20.0358 11.1154 20.0358 11.8783C20.0358 11.971 20.0264 12.0637 20.0081 12.1541C19.982 12.2834 20.0154 12.4175 20.099 12.5196C20.1823 12.6217 20.3072 12.681 20.4393 12.681H21.4935C21.7687 12.681 21.9923 12.9046 21.9923 13.1797V13.2619H17.2828V11.686C17.3771 11.0051 17.9608 10.4947 18.6522 10.4947ZM11.0558 5.86441H14.818V6.85249H11.0558V5.86441ZM9.98331 7.73209H15.8905V9.09073H9.98331V7.73209ZM5.963 18.9837H7.05156V20.3444H5.963V18.9837ZM10.6885 29.1204H9.47061V25.8804C9.47061 25.6375 9.27354 25.4407 9.0307 25.4407C8.78786 25.4407 8.59102 25.6375 8.59102 25.8804V29.1204H4.64853V21.24C4.64853 21.2311 4.65585 21.2238 4.66478 21.2238H8.57477C8.58369 21.2238 8.59102 21.2311 8.59102 21.24V24.1214C8.59102 24.3642 8.78786 24.5611 9.0307 24.5611C9.27377 24.5611 9.47061 24.3642 9.47061 24.1214V21.24C9.47061 20.7461 9.06869 20.3442 8.57477 20.3442H7.93092V18.544C7.93092 18.3009 7.73408 18.1041 7.49124 18.1041H7.24016V14.2115C7.24016 14.2069 7.24405 14.203 7.24863 14.203H10.8128C10.8176 14.203 10.8212 14.2069 10.8212 14.2115V29.1204H10.6885ZM14.173 22.6382V29.1204H11.7008V22.6382H14.173ZM15.0524 29.1204V20.2803C15.0524 20.0375 14.8555 19.8406 14.6127 19.8406C14.3698 19.8406 14.173 20.0375 14.173 20.2803V21.7589H13.425V14.7031C13.425 14.4603 13.2279 14.2635 12.9851 14.2635C12.7422 14.2635 12.5454 14.4603 12.5454 14.7031V21.7589H11.7008V14.2115C11.7008 13.7219 11.3024 13.3237 10.8128 13.3237H9.47038V9.97032H16.4032V11.6348C16.4021 11.6535 16.4018 11.6723 16.4032 11.6908V15.3328H15.0608C14.5712 15.3328 14.173 15.731 14.173 16.2209V18.5213C14.173 18.7642 14.3698 18.961 14.6127 18.961C14.8555 18.961 15.0524 18.7642 15.0524 18.5213V16.2209C15.0524 16.216 15.0562 16.2124 15.0608 16.2124H18.625C18.6298 16.2124 18.6334 16.216 18.6334 16.2209V21.6428C18.2773 21.6911 18.0013 21.9965 18.0013 22.3659V23.8756H17.3904C16.8461 23.8756 16.4032 24.3185 16.4032 24.8627V29.1206H15.0524V29.1204ZM17.2828 29.1204V24.8625C17.2828 24.8032 17.3311 24.7549 17.3904 24.7549H21.0495C21.1088 24.7549 21.1571 24.8032 21.1571 24.8625V29.1204H17.2828Z" />
        <path d="M8.57181 6.82698C8.57181 6.24081 8.09482 5.76382 7.50842 5.76382H7.12321C6.90829 5.15111 6.32304 4.71394 5.64647 4.71257C5.28873 3.95474 4.51762 3.45166 3.65726 3.45166C2.44441 3.45166 1.4577 4.43814 1.4577 5.65099C1.4577 5.68921 1.45885 5.72743 1.46068 5.76543C0.901978 5.79633 0.457031 6.26073 0.457031 6.82698C0.457031 7.41338 0.934021 7.89037 1.52042 7.89037H7.50842C8.09482 7.89037 8.57181 7.41338 8.57181 6.82698ZM1.33662 6.82698C1.33662 6.72559 1.41902 6.64319 1.52042 6.64319H1.98665C2.12764 6.64319 2.26039 6.57544 2.34302 6.461C2.42564 6.34656 2.4483 6.19962 2.40413 6.06549C2.35973 5.93137 2.3373 5.79198 2.3373 5.65099C2.3373 4.92314 2.92941 4.33102 3.65726 4.33102C4.25212 4.33102 4.77603 4.7318 4.93121 5.30537C4.99416 5.53883 5.2338 5.67754 5.46748 5.61597C5.52882 5.59995 5.58627 5.59193 5.64349 5.59193C6.00375 5.59193 6.30542 5.87392 6.32991 6.23349C6.34593 6.4642 6.53751 6.64319 6.76868 6.64319H7.50842C7.60982 6.64319 7.69221 6.72559 7.69221 6.82698C7.69221 6.92838 7.60982 7.01077 7.50842 7.01077H1.52042C1.41902 7.01077 1.33662 6.92838 1.33662 6.82698Z" />
</g>
<defs>
<clipPath id="clip0_1251_1753">
<rect width="30" height="30" fill="white"/>
</clipPath>
</defs>
</svg>
