<svg width="52" height="18" viewBox="0 0 52 18" fill="none" xmlns="http://www.w3.org/2000/svg">
<path d="M8.56218 18C6.95065 18 5.48974 17.6188 4.17943 16.8564C2.88418 16.0773 1.86003 15.0083 1.10698 13.6492C0.368995 12.2735 0 10.7238 0 9C0 7.27624 0.368995 5.73481 1.10698 4.37569C1.86003 3 2.88418 1.93094 4.17943 1.16851C5.48974 0.389503 6.95818 0 8.58477 0C9.95533 0 11.1903 0.265193 12.2898 0.79558C13.4043 1.32597 14.3381 2.0884 15.0911 3.08287L12.7416 5.46961C11.6723 4.1105 10.3469 3.43094 8.76551 3.43094C7.78654 3.43094 6.913 3.67127 6.14489 4.15193C5.37678 4.61602 4.77434 5.27072 4.33757 6.11602C3.91586 6.96133 3.70501 7.92265 3.70501 9C3.70501 10.0773 3.91586 11.0387 4.33757 11.884C4.77434 12.7293 5.37678 13.3923 6.14489 13.8729C6.913 14.337 7.78654 14.5691 8.76551 14.5691C10.3469 14.5691 11.6723 13.8812 12.7416 12.5055L15.0911 14.8923C14.3381 15.9033 13.4043 16.674 12.2898 17.2044C11.1753 17.7348 9.93273 18 8.56218 18Z" fill="#1EA133"/>
<path d="M27.6384 17.7017L24.5886 12.8536H21.2224V17.7017H17.5626V0.298342L24.4078 0.298342C25.8085 0.298342 27.0209 0.555248 28.0451 1.06906C29.0843 1.58287 29.8825 2.31215 30.4398 3.25691C30.997 4.20166 31.2756 5.32044 31.2756 6.61326C31.2756 7.90608 30.9895 9.02486 30.4172 9.96961C29.8599 10.8978 29.0617 11.6105 28.0225 12.1077L31.5693 17.7017H27.6384ZM27.5706 6.61326C27.5706 5.63536 27.2845 4.8895 26.7122 4.37569C26.1398 3.8453 25.304 3.58011 24.2045 3.58011L21.2224 3.58011V9.64641H24.2045C25.304 9.64641 26.1398 9.38122 26.7122 8.85083C27.2845 8.32044 27.5706 7.57459 27.5706 6.61326Z" fill="#1EA133"/>
<path d="M48.5661 17.7017L48.5435 7.25967L43.8897 15.8619H42.2405L37.6092 7.48343V17.7017L34.1753 17.7017V0.298342L37.2026 0.298342L43.1215 11.1133L48.9501 0.298342L51.9548 0.298342L52 17.7017H48.5661Z" fill="#1EA133"/>
</svg>
