<svg width="30" height="30" viewBox="0 0 30 30" fill="none" xmlns="http://www.w3.org/2000/svg">
<path fillRule="evenodd" clipRule="evenodd" d="M15.5 28.7391C22.8118 28.7391 28.7391 22.8118 28.7391 15.5C28.7391 8.18823 22.8118 2.26087 15.5 2.26087C8.18823 2.26087 2.26087 8.18823 2.26087 15.5C2.26087 22.8118 8.18823 28.7391 15.5 28.7391ZM15.5 30C23.5081 30 30 23.5081 30 15.5C30 7.49187 23.5081 1 15.5 1C7.49187 1 1 7.49187 1 15.5C1 23.5081 7.49187 30 15.5 30Z" fill="white"/>
<path fillRule="evenodd" clipRule="evenodd" d="M22 9H9C7.34315 9 6 10.3431 6 12C6 13.6569 7.34315 15 9 15H22C23.6569 15 25 13.6569 25 12C25 10.3431 23.6569 9 22 9ZM9 8C6.79086 8 5 9.79086 5 12C5 14.2091 6.79086 16 9 16H22C24.2091 16 26 14.2091 26 12C26 9.79086 24.2091 8 22 8H9Z" fill="white"/>
<path fillRule="evenodd" clipRulee="evenodd" d="M8.5 22C9.32843 22 10 21.3284 10 20.5C10 19.6716 9.32843 19 8.5 19C7.67157 19 7 19.6716 7 20.5C7 21.3284 7.67157 22 8.5 22ZM8.5 23C9.88071 23 11 21.8807 11 20.5C11 19.1193 9.88071 18 8.5 18C7.11929 18 6 19.1193 6 20.5C6 21.8807 7.11929 23 8.5 23Z" fill="white"/>
<path fillRule="evenodd" clipRule="evenodd" d="M15.5 25C16.3284 25 17 24.3284 17 23.5C17 22.6716 16.3284 22 15.5 22C14.6716 22 14 22.6716 14 23.5C14 24.3284 14.6716 25 15.5 25ZM15.5 26C16.8807 26 18 24.8807 18 23.5C18 22.1193 16.8807 21 15.5 21C14.1193 21 13 22.1193 13 23.5C13 24.8807 14.1193 26 15.5 26Z" fill="white"/>
<path fillRule="evenodd" clipRulee="evenodd" d="M22.5 22C23.3284 22 24 21.3284 24 20.5C24 19.6716 23.3284 19 22.5 19C21.6716 19 21 19.6716 21 20.5C21 21.3284 21.6716 22 22.5 22ZM22.5 23C23.8807 23 25 21.8807 25 20.5C25 19.1193 23.8807 18 22.5 18C21.1193 18 20 19.1193 20 20.5C20 21.8807 21.1193 23 22.5 23Z" fill="white"/>
<path d="M11.4927 10.0556V13.9444H10.7947V10.6611H10V10.0556H11.4927Z" fill="white"/>
<path d="M16.4446 13.3333V13.9444H13.6739V13.4611L15.1666 11.9944C15.3349 11.8278 15.4476 11.6833 15.5049 11.5611C15.5658 11.4352 15.5962 11.3111 15.5962 11.1889C15.5962 11.0074 15.5371 10.8685 15.419 10.7722C15.3009 10.6759 15.1273 10.6278 14.8982 10.6278C14.5151 10.6278 14.2216 10.763 14.0176 11.0333L13.5289 10.6444C13.6757 10.4407 13.8726 10.2833 14.1196 10.1722C14.3702 10.0574 14.6494 10 14.9572 10C15.3653 10 15.691 10.1 15.9345 10.3C16.1779 10.5 16.2996 10.7722 16.2996 11.1167C16.2996 11.3278 16.2566 11.5259 16.1707 11.7111C16.0848 11.8963 15.9201 12.1074 15.6767 12.3444L14.6726 13.3333H16.4446Z" fill="white"/>
<path d="M19.9315 11.6611C20.2787 11.7056 20.5436 11.8278 20.7262 12.0278C20.9087 12.2278 21 12.4778 21 12.7778C21 13.0037 20.9445 13.2093 20.8335 13.3944C20.7226 13.5796 20.5543 13.7278 20.3288 13.8389C20.1069 13.9463 19.8348 14 19.5127 14C19.2442 14 18.9847 13.9611 18.7341 13.8833C18.4871 13.8019 18.2759 13.6907 18.1005 13.55L18.4012 12.9889C18.5372 13.1074 18.7019 13.2019 18.8952 13.2722C19.0921 13.3389 19.2943 13.3722 19.5019 13.3722C19.7489 13.3722 19.9422 13.3204 20.0818 13.2167C20.225 13.1093 20.2966 12.9648 20.2966 12.7833C20.2966 12.6019 20.2286 12.4611 20.0926 12.3611C19.9601 12.2574 19.7561 12.2056 19.4804 12.2056H19.1368V11.7111L19.9905 10.6611H18.2831V10.0556H20.8443V10.5389L19.9315 11.6611Z" fill="white"/>
</svg>
