<svg width="30" height="30" viewBox="0 0 30 30" fill="none" xmlns="http://www.w3.org/2000/svg">
<g id="Group">
<path id="Vector" d="M18.5598 16.0482C18.0457 15.5343 17.2094 15.5343 16.6953 16.0482C16.5839 16.1597 16.4346 16.2211 16.2749 16.2211C16.1153 16.221 15.966 16.1597 15.8546 16.0482L13.9535 14.1472C13.8421 14.0358 13.7807 13.8865 13.7807 13.7268C13.7807 13.5672 13.842 13.4179 13.9535 13.3064C14.4675 12.7924 14.4675 11.956 13.9535 11.442L12.8385 10.3269C12.3245 9.81287 11.4881 9.81293 10.974 10.3269C9.59329 11.7077 9.59329 13.9545 10.974 15.3353L11.8881 16.2493L12.5096 15.6279L11.5956 14.7139C10.5574 13.6758 10.5574 11.9866 11.5955 10.9485C11.7669 10.777 12.0458 10.7772 12.2169 10.9485L13.332 12.0635C13.5033 12.2348 13.5033 12.5137 13.332 12.685C13.0545 12.9625 12.9017 13.3325 12.9017 13.7269C12.9017 14.1213 13.0545 14.4913 13.332 14.7687L15.233 16.6697C15.5104 16.9472 15.8805 17.1 16.2748 17.1001H16.2749C16.6693 17.1001 17.0393 16.9472 17.3168 16.6698C17.3989 16.5876 17.5093 16.5424 17.6275 16.5424C17.7457 16.5424 17.856 16.5876 17.9382 16.6698L19.0532 17.7848C19.2246 17.9562 19.2246 18.235 19.0532 18.4063C18.0151 19.4445 16.3259 19.4444 15.2878 18.4063L14.3739 17.4924L13.7524 18.1138L14.6663 19.0278C15.3569 19.7183 16.2636 20.0634 17.1706 20.0634C18.0774 20.0634 18.9844 19.7181 19.6748 19.0279C20.1887 18.5139 20.1887 17.6774 19.6748 17.1634L18.5598 16.0482Z" fill="white"/>
<path id="Vector_2" d="M12.5068 16.8672L13.1282 16.2458L13.7496 16.8672L13.1282 17.4886L12.5068 16.8672Z" fill="white"/>
<path id="Vector_3" d="M27.8027 12.8027C26.7416 12.8027 25.8538 13.5588 25.6497 14.5605H23.3381C23.2354 12.5889 22.4452 10.7962 21.2037 9.41783L23.4314 7.1901L22.8099 6.56865L20.5822 8.79639C19.2038 7.55484 17.4111 6.76477 15.4395 6.66205V4.35029C16.4412 4.14615 17.1973 3.2584 17.1973 2.19727C17.1973 0.985664 16.2116 0 15 0C13.7884 0 12.8027 0.985664 12.8027 2.19727C12.8027 3.2584 13.5588 4.14615 14.5605 4.35029V6.66193C12.5889 6.76465 10.7963 7.55473 9.41783 8.79627L7.1901 6.56853L6.56859 7.18998L8.79633 9.41771C7.55478 10.7961 6.76471 12.5887 6.66193 14.5604H4.35029C4.14615 13.5587 3.2584 12.8026 2.19727 12.8026C0.985664 12.8027 0 13.7884 0 15C0 16.2116 0.985664 17.1973 2.19727 17.1973C3.2584 17.1973 4.14615 16.4412 4.35029 15.4395H6.66193C6.76465 17.4111 7.55478 19.2037 8.79633 20.5822L6.56859 22.8099L7.1901 23.4313L9.41783 21.2036C10.7963 22.4452 12.5889 23.2352 14.5605 23.3379V25.6496C13.5588 25.8537 12.8027 26.7415 12.8027 27.8026C12.8027 29.0142 13.7884 29.9999 15 29.9999C16.2116 29.9999 17.1973 29.0142 17.1973 27.8026C17.1973 26.7415 16.4412 25.8537 15.4395 25.6496V23.3379C17.4111 23.2352 19.2038 22.4452 20.5822 21.2036L22.8099 23.4313L23.4314 22.8099L21.2037 20.5822C22.4452 19.2037 23.2353 17.4111 23.3381 15.4395H25.6497C25.8538 16.4412 26.7416 17.1973 27.8027 17.1973C29.0143 17.1973 30 16.2116 30 15C30 13.7884 29.0143 12.8027 27.8027 12.8027ZM2.19727 16.3184C1.47035 16.3184 0.878906 15.727 0.878906 15C0.878906 14.273 1.47035 13.6816 2.19727 13.6816C2.92418 13.6816 3.51562 14.273 3.51562 15C3.51562 15.727 2.92418 16.3184 2.19727 16.3184ZM13.6816 2.19727C13.6816 1.47029 14.2731 0.878906 15 0.878906C15.7269 0.878906 16.3184 1.47029 16.3184 2.19727C16.3184 2.92424 15.7269 3.51562 15 3.51562C14.2731 3.51562 13.6816 2.92424 13.6816 2.19727ZM16.3184 27.8027C16.3184 28.5297 15.7269 29.1211 15 29.1211C14.2731 29.1211 13.6816 28.5297 13.6816 27.8027C13.6816 27.0758 14.2731 26.4844 15 26.4844C15.7269 26.4844 16.3184 27.0758 16.3184 27.8027ZM15 22.4707C10.8806 22.4707 7.5293 19.1194 7.5293 15C7.5293 10.8806 10.8806 7.5293 15 7.5293C19.1194 7.5293 22.4707 10.8807 22.4707 15C22.4707 19.1193 19.1194 22.4707 15 22.4707ZM27.8027 16.3184C27.0758 16.3184 26.4844 15.727 26.4844 15C26.4844 14.273 27.0758 13.6816 27.8027 13.6816C28.5296 13.6816 29.1211 14.273 29.1211 15C29.1211 15.727 28.5296 16.3184 27.8027 16.3184Z" fill="white"/>
<path id="Vector_4" d="M25.2959 23.0977C24.7089 23.0977 24.1572 23.3262 23.7422 23.7413C23.3272 24.1563 23.0986 24.708 23.0986 25.295C23.0986 25.8819 23.3272 26.4337 23.7422 26.8487C24.1572 27.2637 24.7089 27.4922 25.2959 27.4922C25.8828 27.4922 26.4346 27.2637 26.8496 26.8487C27.2646 26.4337 27.4932 25.8819 27.4932 25.295C27.4932 24.708 27.2646 24.1563 26.8496 23.7413C26.4346 23.3262 25.8828 23.0977 25.2959 23.0977ZM26.2281 26.2271C25.9791 26.4762 25.648 26.6133 25.2959 26.6133C24.9437 26.6133 24.6127 26.4762 24.3637 26.2271C24.1147 25.9781 23.9775 25.6471 23.9775 25.2949C23.9775 24.9428 24.1147 24.6117 24.3637 24.3627C24.6127 24.1137 24.9437 23.9766 25.2959 23.9766C25.648 23.9766 25.9791 24.1137 26.2281 24.3627C26.4771 24.6117 26.6143 24.9428 26.6143 25.2949C26.6143 25.6471 26.4771 25.9782 26.2281 26.2271Z" fill="white"/>
<path id="Vector_5" d="M4.7041 6.90234C5.29109 6.90234 5.84287 6.67377 6.25783 6.25875C6.67279 5.84373 6.90137 5.29195 6.90137 4.70508C6.90137 4.1182 6.67279 3.56637 6.25783 3.15141C5.84281 2.73639 5.29109 2.50781 4.7041 2.50781C4.11717 2.50781 3.56539 2.73639 3.15043 3.15135C2.73541 3.56637 2.50684 4.11814 2.50684 4.70508C2.50684 5.29201 2.73541 5.84379 3.15037 6.25875C3.56545 6.67377 4.11723 6.90234 4.7041 6.90234ZM3.77188 3.77291C4.0209 3.52389 4.35195 3.38678 4.7041 3.38678C5.05625 3.38678 5.3873 3.52389 5.63627 3.77291C5.88529 4.02193 6.02246 4.35299 6.02246 4.70514C6.02246 5.05728 5.88529 5.38834 5.63627 5.63736C5.3873 5.88639 5.05625 6.0235 4.7041 6.0235C4.35195 6.0235 4.0209 5.88639 3.77188 5.6373C3.52291 5.38834 3.38574 5.05728 3.38574 4.70514C3.38574 4.35299 3.52291 4.02187 3.77188 3.77291Z" fill="white"/>
<path id="Vector_6" d="M25.2959 6.9024C25.8828 6.9024 26.4346 6.67383 26.8496 6.25881C27.2646 5.84379 27.4932 5.29201 27.4932 4.70514C27.4932 4.11826 27.2646 3.56643 26.8496 3.15141H26.8496C26.4346 2.73639 25.8828 2.50781 25.2959 2.50781C24.7089 2.50781 24.1572 2.73639 23.7422 3.15135C23.3272 3.56637 23.0986 4.11814 23.0986 4.70508C23.0986 5.29201 23.3272 5.84379 23.7422 6.25875C24.1571 6.67383 24.7089 6.9024 25.2959 6.9024ZM24.3637 3.77297C24.6127 3.52395 24.9437 3.38684 25.2959 3.38684C25.648 3.38684 25.9791 3.52395 26.2281 3.77297H26.2281C26.4771 4.02199 26.6143 4.35305 26.6143 4.7052C26.6143 5.05734 26.4771 5.3884 26.2281 5.63742C25.9791 5.88645 25.648 6.02355 25.2959 6.02355C24.9437 6.02355 24.6127 5.88645 24.3637 5.63736C24.1147 5.3884 23.9775 5.05734 23.9775 4.7052C23.9775 4.35305 24.1147 4.02193 24.3637 3.77297V3.77297Z" fill="white"/>
<path id="Vector_7" d="M4.7041 23.0977C4.11717 23.0977 3.56539 23.3262 3.15037 23.7413C2.73541 24.1563 2.50684 24.708 2.50684 25.295C2.50684 25.8819 2.73541 26.4337 3.15037 26.8487C3.56539 27.2637 4.11717 27.4922 4.7041 27.4922C5.29109 27.4922 5.84281 27.2637 6.25783 26.8487C6.67279 26.4337 6.90137 25.8819 6.90137 25.295C6.90137 24.708 6.67279 24.1563 6.25783 23.7413C5.84281 23.3262 5.29109 23.0977 4.7041 23.0977ZM5.63627 26.2271C5.3873 26.4762 5.05625 26.6133 4.7041 26.6133C4.35195 26.6133 4.0209 26.4762 3.77188 26.2271C3.52291 25.9781 3.38574 25.6471 3.38574 25.2949C3.38574 24.9428 3.52291 24.6117 3.77193 24.3627C4.0209 24.1137 4.35195 23.9766 4.7041 23.9766C5.05625 23.9766 5.3873 24.1137 5.63627 24.3627C5.88529 24.6117 6.02246 24.9428 6.02246 25.2949C6.02246 25.6471 5.88529 25.9782 5.63627 26.2271Z" fill="white"/>
<path id="Vector_8" d="M16.3184 8.84766H17.1973V9.72656H16.3184V8.84766Z" fill="white"/>
<path id="Vector_9" d="M18.0762 9.72656H18.9551V10.6055H18.0762V9.72656Z" fill="white"/>
</g>
</svg>
