<svg width="30" height="30" viewBox="0 0 30 30" fill="none" xmlns="http://www.w3.org/2000/svg">
<g clip-path="url(#clip0_2817_3736)">
<path d="M1.27801 23.1704C1.50424 23.6062 1.68037 24.0662 1.80366 24.5415C1.86565 24.865 2.06008 25.1479 2.33983 25.3215L4.04374 26.371C4.32784 26.5448 4.68513 26.5448 4.96923 26.371L6.6752 25.3185C6.95449 25.1442 7.14824 24.8611 7.20977 24.5376C7.33352 24.0614 7.51057 23.6005 7.73748 23.1638C7.88708 23.1357 8.03233 23.0883 8.1698 23.0229C8.6966 22.7944 9.02827 22.2646 9.0038 21.6907C9.08088 21.0177 8.65702 20.3887 8.00442 20.2073V18.994C8.00442 17.4294 6.99658 16.9317 6.40139 16.8304C5.70167 16.1348 5.41551 16.1348 3.84039 16.1348C2.38284 16.1348 1.57926 17.3279 1.22997 18.0381C1.08266 18.3373 1.00672 18.6667 1.00855 19.0005V20.2073C0.355262 20.3887 -0.0685982 21.0186 0.0091743 21.6923C-0.00546524 22.4359 0.540544 23.0721 1.27801 23.1704ZM1.23546 21.1792H1.50835C1.78422 21.1792 2.00793 20.9553 2.00793 20.6794V19.0005C2.00656 18.82 2.04704 18.6418 2.12642 18.4798C2.37323 17.98 2.92587 17.1341 3.84039 17.1341C5.28947 17.1341 5.28947 17.1341 5.69984 17.5413L5.81672 17.6602C5.91028 17.7524 6.03517 17.806 6.16647 17.8101C6.36342 17.8156 7.00642 17.9185 7.00642 18.9954V20.681C7.00642 20.9569 7.23013 21.1806 7.50622 21.1806H7.77911C7.7814 21.1806 8.00579 21.1946 8.00579 21.6923C8.02844 21.8783 7.92116 22.0555 7.74594 22.1221C7.64186 22.1697 7.52955 22.1976 7.41518 22.204C7.2315 22.204 7.06269 22.3046 6.97554 22.4664C6.65255 23.0618 6.40253 23.694 6.23098 24.3491C6.22229 24.4001 6.19278 24.445 6.14955 24.4731L4.50649 25.4844L2.86709 24.4727C2.82317 24.445 2.79297 24.4001 2.78405 24.3491C2.61227 23.6933 2.36202 23.0609 2.03904 22.4648C1.95166 22.3033 1.78285 22.2024 1.59917 22.2024C1.4514 22.2211 1.30249 22.1759 1.18994 22.0784C1.07717 21.9807 1.0113 21.8398 1.00855 21.6907C1.00855 21.3789 1.09799 21.192 1.23546 21.1792Z" fill="white"/>
<path d="M28.9906 20.2073V18.9941C28.9906 17.4294 27.9827 16.9317 27.3875 16.8304C26.688 16.1348 26.4016 16.1348 24.8265 16.1348C23.369 16.1348 22.5654 17.3279 22.2161 18.0381C22.0688 18.3373 21.9931 18.6667 21.9949 19.0005V20.2073C21.3416 20.3887 20.9175 21.0187 20.9955 21.6923C20.98 22.4366 21.5262 23.0737 22.2642 23.1718C22.4904 23.6078 22.6667 24.0678 22.7898 24.5431C22.8518 24.8666 23.0462 25.1493 23.326 25.3231L25.0301 26.3724C25.314 26.5465 25.6715 26.5465 25.9554 26.3724L27.6613 25.3202C27.9406 25.1456 28.1346 24.8627 28.1961 24.539C28.3197 24.0628 28.4967 23.6021 28.7238 23.1654C28.8732 23.1373 29.0185 23.0899 29.1559 23.0245C29.6834 22.7958 30.0151 22.2653 29.9899 21.6907C30.067 21.0177 29.6432 20.3887 28.9906 20.2073ZM28.7307 22.1221C28.6266 22.1697 28.5143 22.1976 28.3999 22.204C28.2163 22.204 28.0475 22.3046 27.9603 22.4664C27.6373 23.0618 27.3873 23.694 27.2157 24.3491C27.2071 24.4002 27.1775 24.445 27.1343 24.4731L25.4926 25.4844L23.8532 24.4727C23.8093 24.445 23.7793 24.4002 23.7702 24.3491C23.5984 23.6933 23.3484 23.0609 23.0252 22.4648C22.938 22.3033 22.7692 22.2024 22.5855 22.2024C22.4375 22.2212 22.2886 22.1759 22.1761 22.0784C22.0633 21.9807 21.9974 21.8398 21.9949 21.6907C21.9949 21.3789 22.0844 21.1911 22.2216 21.1792H22.4945C22.7706 21.1792 22.9943 20.9553 22.9943 20.6794V19.0005C22.9927 18.82 23.0332 18.6418 23.1126 18.4798C23.3596 17.98 23.9122 17.1341 24.8265 17.1341C26.2781 17.1341 26.2781 17.1341 26.686 17.5413L26.8029 17.6603C26.8964 17.7524 27.0213 17.806 27.1526 17.8101C27.3496 17.8156 27.9928 17.9185 27.9928 18.9954V20.681C27.9928 20.9569 28.2165 21.1806 28.4924 21.1806H28.7652C28.7678 21.1806 28.9922 21.1946 28.9922 21.6923C29.0137 21.878 28.9059 22.0549 28.7307 22.1205V22.1221Z" fill="white"/>
<path d="M26.5688 29.4277C26.5681 29.4032 26.5656 29.3785 26.5612 29.3542C26.4295 28.926 26.2719 28.5063 26.0896 28.0971C25.9537 27.7999 25.7234 27.5561 25.4345 27.4035C23.2863 26.2498 20.9696 25.4418 18.5697 25.01C18.3432 24.9775 18.1234 25.1031 18.0365 25.3149L16.5199 29.0024H13.4817L11.9652 25.3149C11.8782 25.1031 11.6587 24.9775 11.432 25.01C9.03292 25.4421 6.71667 26.2498 4.56923 27.4035C4.2785 27.5575 4.04701 27.8034 3.91114 28.103C3.72952 28.5097 3.57237 28.927 3.44039 29.3524C3.43627 29.3767 3.43375 29.4011 3.43284 29.4258C3.42597 29.4508 3.42094 29.4764 3.41797 29.5022C3.41797 29.5112 3.42231 29.5183 3.423 29.5272C3.4262 29.561 3.43307 29.5947 3.44336 29.6271C3.44954 29.6571 3.45846 29.6864 3.46989 29.7145C3.48408 29.742 3.50077 29.7678 3.51976 29.7921C3.5376 29.8191 3.55796 29.8442 3.58038 29.8675C3.60325 29.8863 3.62795 29.903 3.6538 29.9174C3.68262 29.9375 3.7135 29.9542 3.74621 29.9675C3.75422 29.9675 3.75971 29.9764 3.76772 29.9789C3.81621 29.9938 3.86676 30.0014 3.91754 30.0014H26.0841C26.1349 30.0014 26.1854 29.9938 26.2341 29.9789C26.2419 29.9789 26.2474 29.97 26.2554 29.9675C26.2881 29.954 26.3192 29.9373 26.3485 29.9174C26.3741 29.9028 26.3986 29.8861 26.4215 29.8675C26.4629 29.8207 26.5004 29.7706 26.5338 29.7175C26.5452 29.6891 26.5542 29.6596 26.5603 29.6297C26.5706 29.5972 26.5775 29.5635 26.5809 29.5297C26.5809 29.5208 26.5857 29.5137 26.5857 29.5048C26.5823 29.4787 26.5768 29.4528 26.5688 29.4277ZM18.8105 26.0599C20.9591 26.5009 23.0327 27.2505 24.9669 28.2849C25.0598 28.3336 25.1341 28.4116 25.1783 28.5068C25.2496 28.6666 25.3167 28.8336 25.3816 29.0024H17.5993L18.8105 26.0599ZM5.03701 28.2844C6.97034 27.25 9.04321 26.5007 11.1911 26.0599L12.4025 29.0024H4.62024C4.68475 28.8341 4.75154 28.6678 4.82016 28.5088C4.865 28.4118 4.9414 28.3327 5.03701 28.2844Z" fill="white"/>
<path d="M24.3483 7.91527C24.3483 7.89834 24.3522 7.88279 24.3483 7.8654C24.3442 7.84779 24.3373 7.84184 24.3337 7.82881C24.1424 6.76858 23.7705 5.74908 23.2343 4.81466C23.2302 4.79773 23.2247 4.78104 23.2183 4.7648C23.2057 4.7481 23.1918 4.73254 23.1769 4.71767C22.6353 3.79538 21.9428 2.97077 21.1283 2.27768C21.1185 2.26395 21.1079 2.25091 21.0967 2.23833C21.0878 2.23078 21.0768 2.22918 21.0672 2.22232C20.2399 1.53472 19.3016 0.992827 18.2923 0.619748C18.2777 0.609226 18.2624 0.599847 18.2464 0.591155C18.2299 0.587724 18.2132 0.585208 18.1965 0.583835C16.133 -0.169872 13.8698 -0.169872 11.8063 0.583835C11.7896 0.585208 11.7729 0.587724 11.7565 0.591155C11.7405 0.599847 11.7251 0.609226 11.7105 0.619748C10.6995 0.992599 9.75909 1.53472 8.93013 2.22323C8.92052 2.23033 8.90954 2.2317 8.90062 2.23925C8.88941 2.25183 8.87889 2.26509 8.86906 2.27882C8.0545 2.97168 7.36187 3.79653 6.82044 4.71882C6.80534 4.73323 6.79161 4.74901 6.7788 4.76571C6.7724 4.78195 6.76714 4.79865 6.76302 4.81558C6.22662 5.74999 5.85468 6.7695 5.66368 7.82995C5.66002 7.84276 5.65156 7.85282 5.64904 7.86632C5.64653 7.87982 5.65156 7.8988 5.64904 7.91618C5.45553 8.98075 5.45553 10.0714 5.64904 11.1357V11.1652C5.64904 11.1753 5.65705 11.1833 5.65957 11.1938C5.85217 12.2641 6.22685 13.2937 6.76737 14.2375C6.77194 14.246 6.77148 14.2549 6.77652 14.2633C6.78475 14.2757 6.79413 14.2876 6.80397 14.2988C7.58604 15.6367 8.68423 16.7621 10.0025 17.5769V17.6229C9.52029 17.8292 9.0031 18.3594 9.0031 19.5082C8.96353 20.4996 9.68956 21.3562 10.6741 21.4795C11.0174 22.1824 11.2825 22.921 11.4651 23.6816C11.5341 24.0862 11.7649 24.4454 12.1042 24.6766L14.4476 26.2351C14.7818 26.4581 15.2171 26.4581 15.5511 26.2351L17.8996 24.6746C18.2384 24.4429 18.4682 24.0833 18.5369 23.6786C18.7199 22.9171 18.9859 22.1778 19.3297 21.474C19.5543 21.4356 19.7718 21.3635 19.975 21.2601C20.6347 20.9326 21.0361 20.2438 20.9959 19.5082C20.9959 18.359 20.4787 17.8292 19.9965 17.6229V17.5769C21.3145 16.7617 22.4127 15.6353 23.1945 14.297C23.2044 14.2858 23.2135 14.2739 23.222 14.2615C23.227 14.253 23.2263 14.2439 23.2309 14.2354C23.7714 13.2916 24.1461 12.2623 24.3387 11.1918C24.3412 11.1813 24.3472 11.1733 24.3492 11.1634C24.3513 11.1534 24.3492 11.1437 24.3492 11.1339C24.5427 10.0696 24.5427 8.97915 24.3492 7.91481L24.3483 7.91527ZM19.5211 20.3696C19.3576 20.4508 19.1792 20.4977 18.9969 20.5076C18.8068 20.5066 18.6323 20.6137 18.5472 20.7839C18.1125 21.6485 17.7772 22.5596 17.5478 23.4997C17.5272 23.6381 17.4517 23.7621 17.3385 23.844L14.9994 25.4047L12.6598 23.8456C12.5459 23.7644 12.4697 23.6406 12.4484 23.5023C12.2192 22.5612 11.8841 21.6492 11.449 20.7839C11.3644 20.6146 11.1913 20.5076 11.0019 20.5076C10.7319 20.5249 10.4675 20.4252 10.2761 20.234C10.0848 20.0428 9.98509 19.7783 10.0025 19.5082C10.0025 18.5884 10.4307 18.5143 10.502 18.5088C10.7781 18.5088 11.0019 18.2851 11.0019 18.0092V15.5207C10.9998 15.2167 11.0691 14.9164 11.2043 14.6442C11.6014 13.8482 12.4898 12.5125 14 12.5125C16.2831 12.5125 16.2831 12.5125 16.9698 13.1905L17.1445 13.3655C17.2383 13.4591 17.3655 13.5119 17.4979 13.5119C17.5588 13.5119 18.9969 13.5348 18.9969 15.5107V18.0092C18.9987 18.2627 19.1915 18.4738 19.4436 18.4983C19.4571 18.4983 19.4688 18.5074 19.4827 18.5083C19.568 18.5143 19.9965 18.5884 19.9965 19.5077C20.036 19.8664 19.8457 20.2113 19.5211 20.3692V20.3696ZM19.9965 16.3751V15.5107C19.9965 13.3276 18.6117 12.6235 17.7173 12.5244L17.6747 12.4821C16.6943 11.5132 16.3871 11.5132 14 11.5132C11.9514 11.5132 10.8079 13.1956 10.3097 14.1979C10.1052 14.6087 9.99996 15.0619 10.0025 15.5207V16.3751C9.17923 15.7765 8.47036 15.0344 7.91017 14.1844L8.28004 13.971C8.43582 13.8825 8.53235 13.7171 8.5328 13.5378C8.53303 13.3584 8.43742 13.1928 8.28187 13.1034C8.12633 13.0142 7.9351 13.0149 7.78024 13.1057L7.41013 13.3191C7.11689 12.7333 6.89226 12.1154 6.74083 11.4782L7.16058 11.4036C7.34243 11.3791 7.49614 11.2572 7.5611 11.0856C7.62607 10.9143 7.59198 10.721 7.47235 10.5822C7.35249 10.4433 7.16652 10.3811 6.98719 10.4202L6.56493 10.4941C6.48418 9.84357 6.48418 9.18525 6.56493 8.53448L6.98673 8.60882C7.01555 8.61385 7.04483 8.61637 7.07434 8.61637C7.33236 8.61477 7.54669 8.4169 7.56911 8.1598C7.5913 7.90269 7.41402 7.67097 7.16012 7.625L6.74243 7.55111C6.89386 6.91406 7.11917 6.29692 7.41357 5.71202L7.77978 5.92292C7.93441 6.01373 8.12587 6.01465 8.28141 5.92521C8.43696 5.836 8.53257 5.67016 8.53212 5.49083C8.53189 5.31149 8.43536 5.14611 8.27959 5.05759L7.91017 4.84463C8.27249 4.2993 8.69613 3.79721 9.17305 3.34865L9.44274 3.67095C9.55757 3.80774 9.73645 3.87293 9.91235 3.84205C10.0883 3.81117 10.2342 3.68879 10.2953 3.52089C10.3566 3.35322 10.3236 3.16566 10.2088 3.02887L9.93889 2.70703C10.4629 2.31359 11.0304 1.98214 11.6304 1.71909L11.7773 2.12236C11.8358 2.29346 11.9822 2.4195 12.1602 2.45198C12.3382 2.48469 12.5198 2.41858 12.6351 2.27928C12.7504 2.13997 12.7815 1.9492 12.7163 1.78062L12.5694 1.37734C13.1978 1.19206 13.8456 1.08066 14.4998 1.04498V1.4693C14.4998 1.74516 14.7235 1.96887 14.9994 1.96887C15.2755 1.96887 15.4992 1.74516 15.4992 1.4693V1.04498C16.1534 1.08066 16.8009 1.19252 17.4295 1.3778L17.2824 1.78108C17.2175 1.94966 17.2484 2.14043 17.3639 2.27973C17.4792 2.41904 17.6608 2.48515 17.8385 2.45266C18.0165 2.41995 18.1629 2.29392 18.2214 2.12282L18.3683 1.71954C18.9683 1.98237 19.5356 2.31382 20.0594 2.70703L19.7895 3.02887C19.6122 3.24023 19.6399 3.55543 19.8515 3.73294C20.063 3.91021 20.3782 3.88231 20.5555 3.67095L20.8254 3.34865C21.3021 3.79721 21.7258 4.2993 22.0881 4.84463L21.7189 5.05759C21.5629 5.14611 21.4666 5.31149 21.4661 5.49083C21.4657 5.67016 21.5615 5.836 21.7168 5.92521C21.8724 6.01465 22.0639 6.01373 22.2185 5.92292L22.5847 5.71202C22.8793 6.29692 23.1044 6.91406 23.2558 7.55111L22.8381 7.625C22.5842 7.67097 22.407 7.90269 22.4294 8.1598C22.4516 8.4169 22.6659 8.61477 22.9242 8.61637C22.9534 8.61637 22.9827 8.61385 23.0115 8.60882L23.4333 8.53448C23.5143 9.18525 23.5143 9.84357 23.4333 10.4941L23.0111 10.4202C22.832 10.3811 22.6458 10.4433 22.5259 10.5822C22.4063 10.721 22.3722 10.9143 22.4372 11.0856C22.5021 11.2572 22.6558 11.3791 22.8377 11.4036L23.2574 11.4782C23.106 12.1154 22.8814 12.7333 22.5884 13.3191L22.218 13.1057C22.0634 13.0149 21.8719 13.0142 21.7164 13.1034C21.5608 13.1928 21.4652 13.3584 21.4657 13.5378C21.4659 13.7171 21.5624 13.8825 21.7182 13.971L22.0886 14.1844C21.5281 15.0342 20.8195 15.7762 19.9965 16.3751Z" fill="white"/>
<path d="M19.7339 9.01399H16.3522C16.2053 8.61941 15.894 8.30832 15.4997 8.16147V3.35993C15.4997 3.08406 15.2759 2.86035 14.9999 2.86035C14.724 2.86035 14.5003 3.08406 14.5003 3.35993V8.16147C13.8726 8.39135 13.4847 9.02177 13.5627 9.68558C13.6407 10.3494 14.164 10.873 14.8281 10.951C15.4919 11.029 16.1223 10.641 16.3522 10.0134H19.7339C20.01 10.0134 20.2337 9.78966 20.2337 9.51379C20.2337 9.2377 20.01 9.01399 19.7339 9.01399ZM14.9999 9.9635C14.7535 9.96213 14.5547 9.76175 14.5552 9.51539C14.5556 9.26904 14.7553 9.06935 15.0017 9.06889C15.2478 9.06843 15.4482 9.26744 15.4496 9.51379C15.4496 9.76198 15.2483 9.9635 14.9999 9.9635Z" fill="white"/>
</g>
<defs>
<clipPath id="clip0_2817_3736">
<rect width="30" height="30" fill="white"/>
</clipPath>
</defs>
</svg>
