<svg width="17" height="17" viewBox="0 0 17 17" fill="none" xmlns="http://www.w3.org/2000/svg">
<path d="M14.0959 1.84142H13.5838V1.28265C13.5838 0.575093 13.0255 0 12.3385 0C11.651 0 11.0932 0.575093 11.0932 1.28265V1.84095H9.8152V1.28265C9.8152 0.575093 9.25691 0 8.5699 0C7.88288 0 7.3246 0.575093 7.3246 1.28265V1.84095H6.04665V1.28265C6.04665 0.575093 5.48836 0 4.80135 0C4.11433 0 3.55604 0.575093 3.55604 1.28265V1.84095H2.90214C1.80936 1.84095 0.919922 2.73041 0.919922 3.82323V4.75606H2.08593H14.9121H16.0781V3.82323C16.0781 2.73088 15.1891 1.84142 14.0959 1.84142ZM5.34704 3.56623C5.34704 3.88759 5.10218 4.14925 4.80135 4.14925C4.50051 4.14925 4.25565 3.88759 4.25565 3.56623V1.28265C4.25565 0.961287 4.50051 0.699627 4.80135 0.699627C5.10218 0.699627 5.34704 0.961287 5.34704 1.28265V3.56623ZM9.11559 3.56623C9.11559 3.88759 8.87073 4.14925 8.5699 4.14925C8.26907 4.14925 8.0242 3.88759 8.0242 3.56623V1.28265C8.0242 0.961287 8.26907 0.699627 8.5699 0.699627C8.87073 0.699627 9.11559 0.961287 9.11559 1.28265V3.56623ZM12.8841 3.56623C12.8841 3.88759 12.6393 4.14925 12.3385 4.14925C12.0372 4.14925 11.7928 3.88759 11.7928 3.56623V1.28265C11.7928 0.961287 12.0372 0.699627 12.3385 0.699627C12.6393 0.699627 12.8841 0.961287 12.8841 1.28265V3.56623Z" fill="#C6D8E1"/>
<path d="M0.919922 15.0176C0.919922 16.1104 1.80936 16.9999 2.90214 16.9999H14.0959C15.1891 16.9999 16.0781 16.1104 16.0781 15.0176V5.64307H0.919922V15.0176ZM11.7191 7.1426H13.8627V9.04932H11.7191V7.1426ZM11.7191 9.68784H13.8627V11.5936H11.7191V9.68784ZM11.7191 12.2336H13.8627V14.1393H11.7191V12.2336ZM8.85907 7.1426H11.0022V9.04932H8.85907V7.1426ZM8.85907 9.68784H11.0022V11.5936H8.85907V9.68784ZM8.85907 12.2336H11.0022V14.1393H8.85907V12.2336ZM5.99674 7.1426H8.14034V9.04932H5.99674V7.1426ZM5.99674 9.68784H8.14034V11.5936H5.99674V9.68784ZM5.99674 12.2336H8.14034V14.1393H5.99674V12.2336ZM3.13535 9.68784H5.27894V11.5936H3.13535V9.68784ZM3.13535 12.2336H5.27894V14.1393H3.13535V12.2336Z" fill="#C6D8E1"/>
</svg>
