<svg width="30" height="30" viewBox="0 0 30 30" fill="none" xmlns="http://www.w3.org/2000/svg">
<g clip-path="url(#clip0_2817_3699)">
<path d="M15.9846 11.4492C15.7418 11.4492 15.5449 11.6463 15.5449 11.8891V13.0917C15.5449 13.3345 15.7418 13.5314 15.9846 13.5314C16.2274 13.5314 16.4245 13.3345 16.4245 13.0917V11.8891C16.4245 11.6463 16.2274 11.4492 15.9846 11.4492Z" fill="white"/>
<path d="M8.98997 22.1201H8.40816C8.28845 22.1201 8.19141 22.2172 8.19141 22.3371V22.7571C8.19141 22.8768 8.28845 22.9741 8.40816 22.9741H8.98997C9.10991 22.9741 9.20695 22.877 9.20695 22.7571V22.3371C9.20695 22.2172 9.10991 22.1201 8.98997 22.1201Z" fill="white"/>
<path d="M14.0429 11.6357H13.4611C13.3414 11.6357 13.2441 11.7328 13.2441 11.8527V12.2727C13.2441 12.3927 13.3412 12.4897 13.4611 12.4897H14.0429C14.1626 12.4897 14.2599 12.3927 14.2599 12.2727V11.8527C14.2599 11.7328 14.1626 11.6357 14.0429 11.6357Z" fill="white"/>
<path d="M17.7267 12.4897H18.3086C18.4283 12.4897 18.5255 12.3927 18.5255 12.2727V11.8527C18.5255 11.7328 18.4283 11.6357 18.3086 11.6357H17.7267C17.607 11.6357 17.5098 11.7328 17.5098 11.8527V12.2727C17.5098 12.3924 17.6068 12.4897 17.7267 12.4897Z" fill="white"/>
<path d="M17.7267 14.2768H18.3086C18.4283 14.2768 18.5255 14.1798 18.5255 14.0598V13.6398C18.5255 13.5201 18.4283 13.4229 18.3086 13.4229H17.7267C17.607 13.4229 17.5098 13.5199 17.5098 13.6398V14.0598C17.5098 14.1798 17.6068 14.2768 17.7267 14.2768Z" fill="white"/>
<path d="M10.8222 22.1201H10.2404C10.1207 22.1201 10.0234 22.2172 10.0234 22.3371V22.7571C10.0234 22.8768 10.1207 22.9741 10.2404 22.9741H10.8222C10.9422 22.9741 11.0392 22.877 11.0392 22.7571V22.3371C11.0392 22.2172 10.9422 22.1201 10.8222 22.1201Z" fill="white"/>
<path d="M8.98997 23.8877H8.40816C8.28845 23.8877 8.19141 23.985 8.19141 24.1047V24.5247C8.19141 24.6446 8.28845 24.7417 8.40816 24.7417H8.98997C9.10991 24.7417 9.20695 24.6446 9.20695 24.5247V24.1047C9.20695 23.985 9.10991 23.8877 8.98997 23.8877Z" fill="white"/>
<path d="M10.8222 23.8877H10.2404C10.1207 23.8877 10.0234 23.985 10.0234 24.1047V24.5247C10.0234 24.6446 10.1207 24.7417 10.2404 24.7417H10.8222C10.9422 24.7417 11.0392 24.6446 11.0392 24.5247V24.1047C11.0392 23.985 10.9422 23.8877 10.8222 23.8877Z" fill="white"/>
<path d="M8.98997 25.6562H8.40816C8.28845 25.6562 8.19141 25.7533 8.19141 25.8732V26.2932C8.19141 26.4129 8.28845 26.5102 8.40816 26.5102H8.98997C9.10991 26.5102 9.20695 26.4132 9.20695 26.2932V25.8732C9.20695 25.7533 9.10991 25.6562 8.98997 25.6562Z" fill="white"/>
<path d="M10.8222 25.6562H10.2404C10.1207 25.6562 10.0234 25.7533 10.0234 25.8732V26.2932C10.0234 26.4129 10.1207 26.5102 10.2404 26.5102H10.8222C10.9422 26.5102 11.0392 26.4132 11.0392 26.2932V25.8732C11.0392 25.7533 10.9422 25.6562 10.8222 25.6562Z" fill="white"/>
<path d="M8.98997 27.4248H8.40816C8.28845 27.4248 8.19141 27.5221 8.19141 27.6418V28.062C8.19141 28.1817 8.28845 28.2788 8.40816 28.2788H8.98997C9.10991 28.2788 9.20695 28.1817 9.20695 28.062V27.6418C9.20695 27.5221 9.10991 27.4248 8.98997 27.4248Z" fill="white"/>
<path d="M10.8222 27.4248H10.2404C10.1207 27.4248 10.0234 27.5221 10.0234 27.6418V28.062C10.0234 28.1817 10.1207 28.2788 10.2404 28.2788H10.8222C10.9422 28.2788 11.0392 28.1817 11.0392 28.062V27.6418C11.0392 27.5221 10.9422 27.4248 10.8222 27.4248Z" fill="white"/>
<path d="M21.5937 25.6562H21.0119C20.8922 25.6562 20.7949 25.7533 20.7949 25.8732V26.2932C20.7949 26.4129 20.892 26.5102 21.0119 26.5102H21.5937C21.7134 26.5102 21.8107 26.4132 21.8107 26.2932V25.8732C21.8107 25.7533 21.7134 25.6562 21.5937 25.6562Z" fill="white"/>
<path d="M15.6738 24.0542H16.2556C16.3755 24.0542 16.4726 23.9571 16.4726 23.8372V23.4172C16.4726 23.2975 16.3755 23.2002 16.2556 23.2002H15.6738C15.5541 23.2002 15.457 23.2972 15.457 23.4172V23.8372C15.457 23.9571 15.5541 24.0542 15.6738 24.0542Z" fill="white"/>
<path d="M15.6738 25.5483H16.2556C16.3755 25.5483 16.4726 25.451 16.4726 25.3313V24.9113C16.4726 24.7914 16.3755 24.6943 16.2556 24.6943H15.6738C15.5541 24.6943 15.457 24.7914 15.457 24.9113V25.3313C15.457 25.451 15.5541 25.5483 15.6738 25.5483Z" fill="white"/>
<path d="M15.6738 27.0424H16.2556C16.3755 27.0424 16.4726 26.9454 16.4726 26.8255V26.4055C16.4726 26.2858 16.3755 26.1885 16.2556 26.1885H15.6738C15.5541 26.1885 15.457 26.2858 15.457 26.4055V26.8255C15.457 26.9454 15.5541 27.0424 15.6738 27.0424Z" fill="white"/>
<path d="M15.6738 28.5366H16.2556C16.3755 28.5366 16.4726 28.4393 16.4726 28.3196V27.8996C16.4726 27.7797 16.3755 27.6826 16.2556 27.6826H15.6738C15.5541 27.6826 15.457 27.7797 15.457 27.8996V28.3196C15.457 28.4393 15.5541 28.5366 15.6738 28.5366Z" fill="white"/>
<path d="M23.4258 25.6562H22.8439C22.724 25.6562 22.627 25.7533 22.627 25.8732V26.2932C22.627 26.4129 22.724 26.5102 22.8439 26.5102H23.4258C23.5455 26.5102 23.6425 26.4132 23.6425 26.2932V25.8732C23.6425 25.7533 23.5455 25.6562 23.4258 25.6562Z" fill="white"/>
<path d="M21.5937 27.4248H21.0119C20.8922 27.4248 20.7949 27.5221 20.7949 27.6418V28.062C20.7949 28.1817 20.892 28.2788 21.0119 28.2788H21.5937C21.7134 28.2788 21.8107 28.1817 21.8107 28.062V27.6418C21.8107 27.5221 21.7134 27.4248 21.5937 27.4248Z" fill="white"/>
<path d="M23.4258 27.4248H22.8439C22.724 27.4248 22.627 27.5221 22.627 27.6418V28.062C22.627 28.1817 22.724 28.2788 22.8439 28.2788H23.4258C23.5455 28.2788 23.6425 28.1817 23.6425 28.062V27.6418C23.6425 27.5221 23.5455 27.4248 23.4258 27.4248Z" fill="white"/>
<path d="M12.8286 14.8926C12.5857 14.8926 12.3887 15.0894 12.3887 15.3323V19.4013C12.3887 19.6442 12.5857 19.841 12.8286 19.841C13.0714 19.841 13.2683 19.6442 13.2683 19.4013V15.3323C13.2683 15.0894 13.0714 14.8926 12.8286 14.8926Z" fill="white"/>
<path d="M11.2522 14.8926C11.0093 14.8926 10.8125 15.0894 10.8125 15.3323V17.3771C10.8125 17.6199 11.0093 17.8168 11.2522 17.8168C11.495 17.8168 11.6921 17.6199 11.6921 17.3771V15.3323C11.6921 15.0894 11.495 14.8926 11.2522 14.8926Z" fill="white"/>
<path d="M20.6018 20.8114C20.8446 20.8114 21.0415 20.6146 21.0415 20.3717V17.2287C21.0415 16.9859 20.8446 16.7891 20.6018 16.7891C20.3589 16.7891 20.1621 16.9859 20.1621 17.2287V20.3717C20.1621 20.6146 20.3589 20.8114 20.6018 20.8114Z" fill="white"/>
<path d="M19.0256 23.7292C19.2685 23.7292 19.4655 23.5324 19.4655 23.2895V17.2287C19.4655 16.9859 19.2685 16.7891 19.0256 16.7891C18.7828 16.7891 18.5859 16.9859 18.5859 17.2287V23.2895C18.5859 23.5324 18.7828 23.7292 19.0256 23.7292Z" fill="white"/>
<path d="M26.0957 29.1204H25.0367V24.8625C25.0367 24.3182 24.5938 23.8756 24.0495 23.8756H23.8488V22.3656C23.8488 21.963 23.5213 21.6353 23.1184 21.6353H22.513V16.2209C22.513 15.731 22.1148 15.3328 21.6252 15.3328H20.2828V14.1412H25.1342C25.5409 14.1412 25.8716 13.8105 25.8716 13.4038V13.1795C25.8716 12.4196 25.2534 11.8014 24.4935 11.8014H23.914C23.8733 10.589 22.8742 9.6151 21.6522 9.6151C21.1404 9.6151 20.6648 9.78653 20.2828 10.077V9.7506C20.2828 9.43748 20.0633 9.17496 19.7699 9.10789V7.6664C19.7699 7.21756 19.4048 6.85249 18.9562 6.85249H18.6976V5.79597C18.6976 5.34874 18.3334 4.98482 17.8862 4.98482H16.406V0.439682C16.406 0.196838 16.2092 0 15.9663 0C15.7233 0 15.5264 0.196838 15.5264 0.439682V4.98482H13.9876C13.5402 4.98482 13.1763 5.34874 13.1763 5.79597V6.85249H12.9176C12.4688 6.85249 12.1037 7.21756 12.1037 7.6664V9.10789C11.8105 9.17496 11.591 9.43748 11.591 9.75082V13.3237H10.2486C9.75905 13.3237 9.36056 13.7219 9.36056 14.2115V18.1041H8.52332C8.28047 18.1041 8.08363 18.3009 8.08363 18.544V20.3444H7.66478C7.17085 20.3444 6.76894 20.7461 6.76894 21.2402V29.1204H5.70944C5.46637 29.1204 5.26953 29.3175 5.26953 29.5603C5.26953 29.8032 5.46637 30 5.70944 30H26.0957C26.3386 30 26.5354 29.8032 26.5354 29.5603C26.5354 29.3175 26.3386 29.1204 26.0957 29.1204ZM22.9694 23.8756H21.8809V22.5149H22.9694V23.8756ZM21.6522 10.4947C22.4151 10.4947 23.0358 11.1154 23.0358 11.8783C23.0358 11.971 23.0264 12.0637 23.0081 12.1541C22.982 12.2834 23.0154 12.4175 23.099 12.5196C23.1823 12.6217 23.3072 12.681 23.4393 12.681H24.4935C24.7687 12.681 24.9923 12.9046 24.9923 13.1797V13.2619H20.2828V11.686C20.3771 11.0051 20.9608 10.4947 21.6522 10.4947ZM14.0558 5.86441H17.818V6.85249H14.0558V5.86441ZM12.9833 7.73209H18.8905V9.09073H12.9833V7.73209ZM8.963 18.9837H10.0516V20.3444H8.963V18.9837ZM13.6885 29.1204H12.4706V25.8804C12.4706 25.6375 12.2735 25.4407 12.0307 25.4407C11.7879 25.4407 11.591 25.6375 11.591 25.8804V29.1204H7.64853V21.24C7.64853 21.2311 7.65585 21.2238 7.66478 21.2238H11.5748C11.5837 21.2238 11.591 21.2311 11.591 21.24V24.1214C11.591 24.3642 11.7879 24.5611 12.0307 24.5611C12.2738 24.5611 12.4706 24.3642 12.4706 24.1214V21.24C12.4706 20.7461 12.0687 20.3442 11.5748 20.3442H10.9309V18.544C10.9309 18.3009 10.7341 18.1041 10.4912 18.1041H10.2402V14.2115C10.2402 14.2069 10.244 14.203 10.2486 14.203H13.8128C13.8176 14.203 13.8212 14.2069 13.8212 14.2115V29.1204H13.6885ZM17.173 22.6382V29.1204H14.7008V22.6382H17.173ZM18.0524 29.1204V20.2803C18.0524 20.0375 17.8555 19.8406 17.6127 19.8406C17.3698 19.8406 17.173 20.0375 17.173 20.2803V21.7589H16.425V14.7031C16.425 14.4603 16.2279 14.2635 15.9851 14.2635C15.7422 14.2635 15.5454 14.4603 15.5454 14.7031V21.7589H14.7008V14.2115C14.7008 13.7219 14.3024 13.3237 13.8128 13.3237H12.4704V9.97032H19.4032V11.6348C19.4021 11.6535 19.4018 11.6723 19.4032 11.6908V15.3328H18.0608C17.5712 15.3328 17.173 15.731 17.173 16.2209V18.5213C17.173 18.7642 17.3698 18.961 17.6127 18.961C17.8555 18.961 18.0524 18.7642 18.0524 18.5213V16.2209C18.0524 16.216 18.0562 16.2124 18.0608 16.2124H21.625C21.6298 16.2124 21.6334 16.216 21.6334 16.2209V21.6428C21.2773 21.6911 21.0013 21.9965 21.0013 22.3659V23.8756H20.3904C19.8461 23.8756 19.4032 24.3185 19.4032 24.8627V29.1206H18.0524V29.1204ZM20.2828 29.1204V24.8625C20.2828 24.8032 20.3311 24.7549 20.3904 24.7549H24.0495C24.1088 24.7549 24.1571 24.8032 24.1571 24.8625V29.1204H20.2828Z" fill="white"/>
<path d="M11.5718 6.82649C11.5718 6.24033 11.0948 5.76334 10.5084 5.76334H10.1232C9.90829 5.15062 9.32304 4.71346 8.64647 4.71208C8.28873 3.95425 7.51762 3.45117 6.65726 3.45117C5.44441 3.45117 4.4577 4.43765 4.4577 5.6505C4.4577 5.68872 4.45885 5.72694 4.46068 5.76494C3.90198 5.79584 3.45703 6.26024 3.45703 6.82649C3.45703 7.41289 3.93402 7.88988 4.52042 7.88988H10.5084C11.0948 7.88988 11.5718 7.41289 11.5718 6.82649ZM4.33662 6.82649C4.33662 6.7251 4.41902 6.6427 4.52042 6.6427H4.98665C5.12764 6.6427 5.26039 6.57495 5.34302 6.46051C5.42564 6.34607 5.4483 6.19913 5.40413 6.065C5.35973 5.93088 5.3373 5.79149 5.3373 5.6505C5.3373 4.92265 5.92941 4.33054 6.65726 4.33054C7.25212 4.33054 7.77603 4.73131 7.93121 5.30489C7.99416 5.53835 8.2338 5.67705 8.46748 5.61548C8.52882 5.59946 8.58627 5.59145 8.64349 5.59145C9.00375 5.59145 9.30542 5.87343 9.32991 6.233C9.34593 6.46371 9.53751 6.6427 9.76868 6.6427H10.5084C10.6098 6.6427 10.6922 6.7251 10.6922 6.82649C10.6922 6.92789 10.6098 7.01028 10.5084 7.01028H4.52042C4.41902 7.01028 4.33662 6.92789 4.33662 6.82649Z" fill="white"/>
</g>
<defs>
<clipPath id="clip0_2817_3699">
<rect width="30" height="30" fill="white"/>
</clipPath>
</defs>
</svg>
