<svg width="30" height="30" viewBox="0 0 30 30" fill="none" xmlns="http://www.w3.org/2000/svg">
<path d="M7.96875 9.25781H22.0312C22.274 9.25781 22.4707 9.06105 22.4707 8.81836V3.95508C22.4707 3.71238 22.274 3.51562 22.0312 3.51562H7.96875C7.726 3.51562 7.5293 3.71238 7.5293 3.95508V8.81836C7.5293 9.06105 7.726 9.25781 7.96875 9.25781ZM8.4082 4.39453H21.5918V8.37891H8.4082V4.39453Z" fill="white"/>
<path d="M7.5293 17.6074C7.5293 17.8501 7.726 18.0469 7.96875 18.0469H22.0312C22.274 18.0469 22.4707 17.8501 22.4707 17.6074V10.5762C22.4707 10.3335 22.274 10.1367 22.0312 10.1367H7.96875C7.726 10.1367 7.5293 10.3335 7.5293 10.5762V17.6074ZM8.4082 16.2891H18.0762V17.168H8.4082V16.2891ZM18.9551 13.6523V12.7734H21.5918V13.6523H18.9551ZM21.5918 14.5312V15.4102H18.9551V14.5312H21.5918ZM18.0762 13.6523H8.4082V12.7734H18.0762V13.6523ZM18.0762 14.5312V15.4102H8.4082V14.5312H18.0762ZM18.9551 17.168V16.2891H21.5918V17.168H18.9551ZM21.5918 11.0156V11.8945H8.4082V11.0156H21.5918Z" fill="white"/>
<path d="M25.9863 0.439453C25.9863 0.196758 25.7896 0 25.5469 0H4.45312C4.21037 0 4.01367 0.196758 4.01367 0.439453V8.81836C4.01367 9.06105 4.21037 9.25781 4.45312 9.25781C4.69588 9.25781 4.89258 9.06105 4.89258 8.81836V0.878906H25.1074V15.8496C25.1074 17.5458 23.7274 18.9258 22.0312 18.9258H15.3516C15.1088 18.9258 14.9121 19.1225 14.9121 19.3652V26.0449C14.9121 27.7412 13.5321 29.1211 11.8359 29.1211H4.89258V10.5762C4.89258 10.3335 4.69588 10.1367 4.45312 10.1367C4.21037 10.1367 4.01367 10.3335 4.01367 10.5762V29.5605C4.01367 29.8032 4.21037 30 4.45312 30H11.8359C12.9264 30 13.9151 29.5564 14.6313 28.8403C14.6327 28.8416 24.828 18.6463 24.828 18.6463C25.5428 17.9288 25.9864 16.94 25.9864 15.8497V0.439453H25.9863ZM15.791 26.0449V19.8047H22.0312C22.1723 19.8047 22.3115 19.797 22.4487 19.7825L15.7688 26.4624C15.7833 26.3252 15.791 26.186 15.791 26.0449Z" fill="white"/>
<path d="M7.96875 22.9688H13.5938C13.8365 22.9688 14.0332 22.772 14.0332 22.5293C14.0332 22.2866 13.8365 22.0898 13.5938 22.0898H7.96875C7.726 22.0898 7.5293 22.2866 7.5293 22.5293C7.5293 22.772 7.726 22.9688 7.96875 22.9688Z" fill="white"/>
<path d="M7.96875 24.7266H13.5938C13.8365 24.7266 14.0332 24.5298 14.0332 24.2871C14.0332 24.0444 13.8365 23.8477 13.5938 23.8477H7.96875C7.726 23.8477 7.5293 24.0444 7.5293 24.2871C7.5293 24.5298 7.726 24.7266 7.96875 24.7266Z" fill="white"/>
<path d="M7.96875 26.4844H13.5938C13.8365 26.4844 14.0332 26.2876 14.0332 26.0449C14.0332 25.8022 13.8365 25.6055 13.5938 25.6055H7.96875C7.726 25.6055 7.5293 25.8022 7.5293 26.0449C7.5293 26.2876 7.726 26.4844 7.96875 26.4844Z" fill="white"/>
</svg>
