<svg width="30" height="30" viewBox="0 0 30 30" fill="none" xmlns="http://www.w3.org/2000/svg">
<path d="M25.5103 24.8052L23.2367 20.6232V13.7313C23.2367 10.9606 21.7012 8.41145 19.2142 7.02153C19.4667 6.48149 19.6083 5.88403 19.6083 5.25496C19.6083 2.86614 17.5823 0.922852 15.0917 0.922852C12.6013 0.922852 10.5749 2.86614 10.5749 5.25496C10.5749 5.90215 10.7249 6.51619 10.9913 7.06819L10.9487 7.09314C9.78184 7.77314 8.80525 8.73223 8.12497 9.86699C7.42331 11.0375 7.05217 12.3737 7.05217 13.7313V20.6232L4.77863 24.8052C4.36419 25.5679 4.96286 26.5082 5.85535 26.5082H11.9519C12.2033 27.8783 13.4523 28.9229 14.9517 28.9229C16.451 28.9229 17.7 27.8783 17.9514 26.5082H24.4335C25.3251 26.5082 25.9254 25.569 25.5103 24.8052ZM15.0917 2.01865C16.9522 2.01865 18.4658 3.47061 18.4658 5.25496C18.4658 7.03931 16.9522 8.49109 15.0917 8.49109C13.2312 8.49109 11.7176 7.03931 11.7176 5.25496C11.7177 3.47061 13.2314 2.01865 15.0917 2.01865ZM14.9517 27.8271C14.0854 27.8271 13.3527 27.2689 13.1228 26.5082H16.7805C16.5504 27.2689 15.8181 27.8271 14.9517 27.8271ZM24.4948 25.3793C24.474 25.4124 24.4448 25.4124 24.4335 25.4124H5.85535C5.79495 25.4017 5.77375 25.3683 5.79174 25.3119L7.96996 21.3052H9.19029C9.92367 21.3052 9.92492 20.2094 9.19029 20.2094H8.195V13.7313C8.195 12.5651 8.51322 11.4177 9.11546 10.4132C9.70006 9.43838 10.5391 8.61414 11.5437 8.02881L11.598 7.99702C12.4269 8.96687 13.685 9.58706 15.0917 9.58706C16.5171 9.58706 17.7897 8.94978 18.6178 7.9572C20.7665 9.14836 22.0941 11.3441 22.0941 13.7313V20.2094H13.7461C13.0127 20.2094 13.0115 21.3052 13.7461 21.3052H22.3191L24.4971 25.3119C24.5021 25.3213 24.5158 25.3463 24.4948 25.3793Z" fill="white"/>
<path d="M11.2373 20.2959C10.938 20.2959 10.6875 20.5472 10.6875 20.8463C10.6875 21.1453 10.9381 21.3964 11.2373 21.3966C11.5278 21.3966 11.7743 21.1597 11.7872 20.8703C11.8009 20.5623 11.5458 20.2959 11.2373 20.2959Z" fill="white"/>
</svg>
