<svg width="30" height="30" viewBox="0 0 30 30" fill="none" xmlns="http://www.w3.org/2000/svg">
<path d="M29.4845 29.0218H25.981V28.0195C25.981 25.7243 25.336 23.9528 24.0639 22.7542C22.442 21.2262 20.4031 21.2238 20.3246 21.2233H17.7423V19.7406C17.7423 19.7148 17.7396 19.6896 17.7354 19.6648C19.3889 19.0165 20.4339 17.9351 21.0702 16.9976C21.1793 16.8368 21.2786 16.6768 21.3699 16.5191C23.0265 16.4367 24.3478 15.1318 24.3478 13.5396C24.3478 12.9678 24.1767 12.4122 23.8531 11.9326C23.9088 11.5135 23.8868 11.1339 23.8627 10.9097C23.8231 10.5409 23.6472 10.2314 23.3543 10.0147C23.145 9.85992 22.8999 9.77097 22.6633 9.7214V4.88604C22.6633 3.27678 21.9623 2.20114 20.52 1.59748C19.9351 1.35278 20.0891 0.820203 20.1487 0.66681C20.2375 0.450611 20.154 0.204934 19.9488 0.0786708C19.7435 -0.0475267 19.4731 -0.019548 19.3014 0.145715C18.4847 0.931792 17.6203 0.910857 16.052 0.873356C14.9591 0.847139 13.5987 0.814464 11.8078 1.0576C9.34824 1.39145 8.25731 2.83362 7.77524 3.98466C7.29228 5.13798 7.3217 6.21493 7.32843 6.36389V9.5667C7.32843 9.61868 7.33716 9.6687 7.35297 9.71572C7.10775 9.76405 6.85125 9.85373 6.63352 10.0147C6.34052 10.2313 6.16465 10.5408 6.12499 10.9097C6.07296 11.3942 6.03056 12.6039 6.76039 13.3706C7.01324 13.6363 7.33263 13.8144 7.69978 13.8979V14.0001C7.69978 14.0236 7.70156 14.0471 7.70514 14.0703C7.71414 14.1294 7.93792 15.536 8.92989 16.9975C9.56618 17.9351 10.6111 19.0164 12.2646 19.6647C12.2605 19.6895 12.2577 19.7147 12.2577 19.7406V21.2232H9.67924C9.59374 21.2248 7.55758 21.2266 5.93626 22.7542C4.66416 23.9527 4.01913 25.7242 4.01913 28.0194V29.0217H0.515468C0.230792 29.0217 0 29.2407 0 29.5109C0 29.781 0.230792 30 0.515468 30H29.4845C29.7693 30 30 29.781 30 29.5109C29.9999 29.2408 29.7692 29.0218 29.4845 29.0218ZM20.3283 22.2016C20.3691 22.2016 22.0271 22.2138 23.3376 23.4485C24.4076 24.4566 24.9501 25.9946 24.9501 28.0195V29.0218H16.7787C16.7773 28.9868 16.7721 28.9516 16.7623 28.9163L15.7728 25.3546L16.4819 25.5741C16.5344 25.5903 16.5883 25.5982 16.6416 25.5982C16.7886 25.5982 16.9317 25.5384 17.0313 25.4293L17.5688 24.8404L18.5029 24.2986C18.6835 24.1938 18.7783 23.995 18.7418 23.7971L18.4484 22.2017L20.3283 22.2016ZM12.5267 22.921C12.8654 23.6044 13.5094 24.1252 14.291 24.3247L13.5847 24.5432L13.2189 24.1423C13.1841 24.1043 13.1433 24.0715 13.098 24.0452L12.3949 23.6374L12.5267 22.921ZM17.5172 22.8288L17.666 23.6374L16.9628 24.0453C16.9175 24.0716 16.8767 24.1043 16.842 24.1424L16.4761 24.5433L15.7414 24.316C16.543 24.1011 17.1965 23.5477 17.5172 22.8288ZM15.7255 29.0218H14.3399L15.0327 26.5284L15.7255 29.0218ZM16.4092 8.20755C16.246 8.25288 16.1169 8.37164 16.0641 8.52503C16.0533 8.55634 15.9255 8.93702 15.8868 9.43855C15.165 9.28489 14.5369 9.33772 14.0858 9.43124C14.0464 8.93343 13.9199 8.55621 13.9092 8.52503C13.8564 8.37164 13.7272 8.25288 13.564 8.20755C12.7003 7.96761 11.8117 7.84598 10.923 7.84598C10.5397 7.84598 10.1871 7.86881 9.87024 7.90376C9.94667 7.81644 9.98948 7.70622 9.98948 7.59143V6.52329C10.4658 6.30481 11.8743 5.82121 15.0081 5.82121C18.142 5.82121 19.5506 6.30481 20.0269 6.52329V7.59143C20.0269 7.70843 20.0712 7.82087 20.1505 7.90898C19.8216 7.87102 19.4528 7.84598 19.0503 7.84598C18.1615 7.84598 17.2729 7.96768 16.4092 8.20755ZM10.9229 8.82425C11.6184 8.82425 12.3142 8.90813 12.9953 9.07378C13.0854 9.48342 13.1462 10.1582 12.8396 10.5802C12.6321 10.8657 12.2694 11.0177 11.7307 11.0447C11.3239 11.0651 11.0305 11.0742 10.7797 11.0742C9.45965 11.0742 8.98693 10.9789 8.86652 9.08245C9.26219 8.97511 9.98536 8.82425 10.9229 8.82425ZM16.9778 9.07385C17.659 8.90819 18.3548 8.82432 19.0503 8.82432C19.9803 8.82432 20.7083 8.97621 21.1067 9.0835C20.9861 10.9789 20.5133 11.0742 19.1935 11.0742C18.9427 11.0742 18.6493 11.0651 18.2425 11.0447C17.7038 11.0177 17.3411 10.8657 17.1336 10.5802C16.8268 10.1581 16.8879 9.48283 16.9778 9.07385ZM23.3169 13.5396C23.3169 14.4155 22.7218 15.1615 21.8953 15.4341C22.2004 14.6656 22.2894 14.1072 22.295 14.0704C22.2985 14.0471 22.3003 14.0237 22.3003 14.0002V13.8954C22.6624 13.8107 22.9773 13.6335 23.2274 13.3707C23.2524 13.3444 23.2763 13.3175 23.2996 13.2902C23.3104 13.3725 23.3169 13.4557 23.3169 13.5396ZM22.8371 11.0089C22.8984 11.5789 22.8321 12.3264 22.4623 12.7149C22.4127 12.767 22.3586 12.8099 22.3003 12.8459V10.6549C22.46 10.6723 22.6199 10.7113 22.7217 10.7872C22.7709 10.8239 22.8231 10.879 22.8371 11.0089ZM11.9537 2.02603C13.6591 1.7945 14.9716 1.82613 16.0258 1.85137C17.2627 1.88118 18.2457 1.90472 19.1313 1.47415C19.2536 1.87615 19.5456 2.25892 20.104 2.4926C21.1753 2.94097 21.6323 3.65674 21.6323 4.88604V7.8932L21.0578 7.38013V6.24259C21.0578 6.09585 20.9884 5.95693 20.8687 5.86399C20.7341 5.75951 19.426 4.843 15.0081 4.843C10.5904 4.843 9.28226 5.75951 9.14762 5.86399C9.02797 5.95693 8.95855 6.09591 8.95855 6.24259V7.38006L8.3593 7.91511V6.35235C8.3593 6.34394 8.35903 6.33435 8.35855 6.32594C8.35016 6.17143 8.19559 2.5361 11.9537 2.02603ZM7.52541 12.715C7.15565 12.3265 7.08933 11.579 7.15056 11.009C7.16452 10.879 7.21675 10.824 7.26603 10.7872C7.37036 10.7094 7.53586 10.6702 7.69971 10.6534V12.8532C7.63662 12.8158 7.5784 12.7706 7.52541 12.715ZM9.81711 16.498C9.01058 15.3234 8.76783 14.1605 8.73064 13.9601V11.5485C9.18776 11.91 9.84701 12.0525 10.7797 12.0525C11.0494 12.0525 11.3595 12.043 11.7851 12.0217C12.6546 11.978 13.296 11.6785 13.6913 11.1314C13.8418 10.9231 13.9407 10.6954 14.0036 10.4642C14.2527 10.3828 14.7324 10.2702 15.339 10.3399V12.1988C15.339 12.3067 15.2465 12.3945 15.1328 12.3945H14.867C14.7533 12.3945 14.6608 12.3067 14.6608 12.1988C14.6608 11.9287 14.43 11.7097 14.1453 11.7097C13.8606 11.7097 13.6299 11.9287 13.6299 12.1988C13.6299 12.8461 14.1848 13.3728 14.867 13.3728H15.1328C15.7971 13.3728 16.3393 12.8729 16.3673 12.249C16.369 12.2325 16.3699 12.2158 16.3699 12.1988V11.2439C16.7695 11.7194 17.3801 11.9812 18.188 12.0217C18.6137 12.043 18.9221 12.0503 19.1935 12.0526C20.144 12.0526 20.8113 11.9052 21.2692 11.528V13.9601C21.242 14.1067 21.1074 14.7543 20.7306 15.5451H17.2267C17.1616 15.5451 17.0996 15.5571 17.0422 15.5779C16.9037 15.4355 16.7059 15.3458 16.4855 15.3458H15.9165C15.4978 15.3458 15.1584 15.6679 15.1584 16.0653C15.1584 16.4626 15.4978 16.7847 15.9165 16.7847H16.4855C16.7299 16.7847 16.9466 16.6746 17.0853 16.5043C17.1302 16.5165 17.1776 16.5234 17.2267 16.5234H20.1649C19.0097 18.1897 17.2883 19.1066 15.0477 19.2483H14.9521C12.7 19.1058 10.9723 18.1805 9.81711 16.498ZM14.9018 20.2255C14.913 20.2261 14.924 20.2265 14.9352 20.2265H15.0648C15.0759 20.2265 15.087 20.2262 15.0981 20.2255C15.6823 20.1895 16.2183 20.106 16.7114 19.9862V21.7125C16.7114 21.7155 16.7118 21.7184 16.7119 21.7215C16.7048 21.7537 16.7011 21.7871 16.7011 21.8214C16.7011 22.7114 15.938 23.4355 15 23.4355C14.062 23.4355 13.2989 22.7114 13.2989 21.8214C13.2989 21.7871 13.2951 21.7537 13.2881 21.7215C13.2881 21.7185 13.2886 21.7156 13.2886 21.7125V19.9862C13.7816 20.106 14.3177 20.1896 14.9018 20.2255ZM5.04993 28.0195C5.04993 22.2688 9.48481 22.2016 9.67546 22.2016H11.6125L11.319 23.7971C11.2826 23.995 11.3774 24.1937 11.558 24.2985L12.4921 24.8403L13.0296 25.4292C13.1292 25.5383 13.2723 25.5982 13.4193 25.5982C13.4726 25.5982 13.5265 25.5903 13.579 25.574L14.2931 25.3531L13.303 28.9163C13.2932 28.9516 13.2881 28.9868 13.2866 29.0217H5.04993V28.0195Z" fill="#6B8795"/>
</svg>
