<svg width="30" height="30" viewBox="0 0 30 30" fill="none" xmlns="http://www.w3.org/2000/svg">
<path d="M5.15625 18.75H4.21875V26.25C4.21875 26.4986 4.31752 26.7371 4.49334 26.9129C4.66915 27.0887 4.90761 27.1875 5.15625 27.1875H15V26.25H5.15625V18.75Z" fill="white"/>
<path d="M5.15625 2.4525C5.17266 2.48531 5.19 2.51906 5.20687 2.55328C5.46 3.05813 5.80641 3.75 6.56531 3.75C7.32422 3.75 7.67062 3.05813 7.92469 2.55328C8.1225 2.15625 8.27625 1.875 8.44359 1.875C8.61094 1.875 8.76281 2.15625 8.95922 2.55328C9.21422 3.05813 9.5625 3.75 10.3181 3.75C11.0737 3.75 11.422 3.05813 11.6747 2.55281C11.8734 2.15625 12.0267 1.875 12.1927 1.875C12.3586 1.875 12.5114 2.15625 12.7083 2.55328C12.9623 3.05813 13.3083 3.75 14.0667 3.75C14.8252 3.75 15.1706 3.05813 15.4219 2.55328C15.622 2.15625 15.7753 1.875 15.9417 1.875C16.1081 1.875 16.2605 2.15625 16.4573 2.55281C16.7119 3.05813 17.0578 3.75 17.8162 3.75C18.5747 3.75 18.9197 3.05813 19.1719 2.55328C19.3711 2.15625 19.5244 1.875 19.6908 1.875C19.8572 1.875 20.0095 2.15625 20.2064 2.55328C20.4605 3.05813 20.8064 3.75 21.5648 3.75C22.3233 3.75 22.6678 3.05813 22.9219 2.55328C22.9388 2.52047 22.9547 2.48859 22.9688 2.45672V12.1875H23.9062V1.40625C23.9062 1.28193 23.8569 1.1627 23.769 1.07479C23.681 0.986886 23.5618 0.9375 23.4375 0.9375C22.6795 0.9375 22.3341 1.62937 22.0814 2.13469C21.8836 2.53125 21.7298 2.8125 21.5648 2.8125C21.3998 2.8125 21.2456 2.53125 21.0469 2.13422C20.7947 1.62937 20.4492 0.9375 19.6908 0.9375C18.9323 0.9375 18.5864 1.62937 18.3337 2.13469C18.135 2.53125 17.9817 2.8125 17.8162 2.8125C17.6508 2.8125 17.4966 2.53125 17.2978 2.13422C17.0452 1.62937 16.6997 0.9375 15.9417 0.9375C15.1837 0.9375 14.8373 1.62937 14.5847 2.13422C14.3859 2.53125 14.2327 2.8125 14.0667 2.8125C13.9008 2.8125 13.7475 2.53125 13.5487 2.13422C13.2966 1.62937 12.9511 0.9375 12.1927 0.9375C11.4342 0.9375 11.0888 1.62937 10.8361 2.13422C10.6373 2.53125 10.4841 2.8125 10.3181 2.8125C10.1522 2.8125 9.99891 2.53125 9.80016 2.13469C9.5475 1.62937 9.20203 0.9375 8.44359 0.9375C7.68516 0.9375 7.33828 1.62891 7.08422 2.13375C6.88641 2.53125 6.73219 2.8125 6.56531 2.8125C6.39844 2.8125 6.24422 2.53125 6.04547 2.13422C5.79234 1.62937 5.44641 0.9375 4.6875 0.9375C4.56318 0.9375 4.44395 0.986886 4.35604 1.07479C4.26814 1.1627 4.21875 1.28193 4.21875 1.40625V7.5H5.15625V2.4525Z" fill="white"/>
<path d="M12.1875 16.875V9.375C12.1875 9.12636 12.0887 8.8879 11.9129 8.71209C11.7371 8.53627 11.4986 8.4375 11.25 8.4375H2.8125C2.56386 8.4375 2.3254 8.53627 2.14959 8.71209C1.97377 8.8879 1.875 9.12636 1.875 9.375V16.875C1.875 17.1236 1.97377 17.3621 2.14959 17.5379C2.3254 17.7137 2.56386 17.8125 2.8125 17.8125H11.25C11.4986 17.8125 11.7371 17.7137 11.9129 17.5379C12.0887 17.3621 12.1875 17.1236 12.1875 16.875ZM11.25 10.3125H8.4375V9.375H11.25V10.3125ZM7.5 9.375V12.1875H6.5625V9.375H7.5ZM5.625 9.375V10.3125H2.8125V9.375H5.625ZM2.8125 11.25H5.625V12.6562C5.625 12.7806 5.67439 12.8998 5.76229 12.9877C5.8502 13.0756 5.96943 13.125 6.09375 13.125H7.96875C8.09307 13.125 8.2123 13.0756 8.30021 12.9877C8.38811 12.8998 8.4375 12.7806 8.4375 12.6562V11.25H11.25V16.875H2.8125V11.25Z" fill="white"/>
<path d="M10.3125 15H8.4375V15.9375H10.3125V15Z" fill="white"/>
<path d="M7.5 15H6.5625V15.9375H7.5V15Z" fill="white"/>
<path d="M26.7188 13.125H17.3438C16.9708 13.125 16.6131 13.2732 16.3494 13.5369C16.0857 13.8006 15.9375 14.1583 15.9375 14.5312V27.6562C15.9375 28.0292 16.0857 28.3869 16.3494 28.6506C16.6131 28.9143 16.9708 29.0625 17.3438 29.0625H26.7188C27.0917 29.0625 27.4494 28.9143 27.7131 28.6506C27.9768 28.3869 28.125 28.0292 28.125 27.6562V14.5312C28.125 14.1583 27.9768 13.8006 27.7131 13.5369C27.4494 13.2732 27.0917 13.125 26.7188 13.125ZM27.1875 27.6562C27.1875 27.7806 27.1381 27.8998 27.0502 27.9877C26.9623 28.0756 26.8431 28.125 26.7188 28.125H17.3438C17.2194 28.125 17.1002 28.0756 17.0123 27.9877C16.9244 27.8998 16.875 27.7806 16.875 27.6562V14.5312C16.875 14.4069 16.9244 14.2877 17.0123 14.1998C17.1002 14.1119 17.2194 14.0625 17.3438 14.0625H26.7188C26.8431 14.0625 26.9623 14.1119 27.0502 14.1998C27.1381 14.2877 27.1875 14.4069 27.1875 14.5312V27.6562Z" fill="white"/>
<path d="M25.7812 15H18.2812C18.1569 15 18.0377 15.0494 17.9498 15.1373C17.8619 15.2252 17.8125 15.3444 17.8125 15.4688V17.3438C17.8125 17.4681 17.8619 17.5873 17.9498 17.6752C18.0377 17.7631 18.1569 17.8125 18.2812 17.8125H25.7812C25.9056 17.8125 26.0248 17.7631 26.1127 17.6752C26.2006 17.5873 26.25 17.4681 26.25 17.3438V15.4688C26.25 15.3444 26.2006 15.2252 26.1127 15.1373C26.0248 15.0494 25.9056 15 25.7812 15ZM25.3125 16.875H18.75V15.9375H25.3125V16.875Z" fill="white"/>
<path d="M25.7812 18.75H18.2812C18.1569 18.75 18.0377 18.7994 17.9498 18.8873C17.8619 18.9752 17.8125 19.0944 17.8125 19.2188V26.7188C17.8125 26.8431 17.8619 26.9623 17.9498 27.0502C18.0377 27.1381 18.1569 27.1875 18.2812 27.1875H25.7812C25.9056 27.1875 26.0248 27.1381 26.1127 27.0502C26.2006 26.9623 26.25 26.8431 26.25 26.7188V19.2188C26.25 19.0944 26.2006 18.9752 26.1127 18.8873C26.0248 18.7994 25.9056 18.75 25.7812 18.75ZM22.5 26.25H21.0938V23.4375H22.5V26.25ZM22.5 22.5H21.0938V19.6875H22.5V22.5ZM20.1562 19.6875V22.5H18.75V19.6875H20.1562ZM18.75 23.4375H20.1562V26.25H18.75V23.4375ZM25.3125 26.25H23.4375V19.6875H25.3125V26.25Z" fill="white"/>
<path d="M20.1562 7.03125H14.5312V7.96875H20.1562V7.03125Z" fill="white"/>
<path d="M20.1562 8.90625H14.5312V9.84375H20.1562V8.90625Z" fill="white"/>
<path d="M13.5938 20.625H7.96875V21.5625H13.5938V20.625Z" fill="white"/>
<path d="M13.5938 22.5H7.96875V23.4375H13.5938V22.5Z" fill="white"/>
</svg>
