<svg width="37" height="38" viewBox="0 0 37 38" fill="none" xmlns="http://www.w3.org/2000/svg">
<g clip-path="url(#clip0_3019_3291)">
<path d="M19.5726 21.0732L28.0237 21.0732C28.6906 21.0732 29.231 20.5327 29.231 19.8659C29.231 19.1991 28.6905 18.6586 28.0237 18.6585L19.5725 18.6586L19.5725 10.2074C19.5725 9.54064 19.032 9.00016 18.3652 9.00011C17.6984 9.00011 17.1579 9.54064 17.1579 10.2074L17.1579 18.6586L8.70671 18.6586C8.04002 18.6585 7.49944 19.1991 7.49938 19.8659C7.49943 20.5327 8.03991 21.0732 8.70671 21.0732L17.1579 21.0732L17.1579 29.5243C17.158 30.1911 17.6984 30.7316 18.3652 30.7317C19.032 30.7317 19.5726 30.1912 19.5726 29.5243L19.5726 21.0732Z" fill="#EFF1F5"/>
<circle cx="18.5" cy="19" r="17.5" stroke="#EFF1F5" stroke-width="2"/>
</g>
<defs>
<clipPath id="clip0_3019_3291">
<rect width="37" height="37" fill="white" transform="translate(0 0.5)"/>
</clipPath>
</defs>
</svg>
