<svg width="37" height="37" viewBox="0 0 37 37" fill="none" xmlns="http://www.w3.org/2000/svg">
<path fill-rule="evenodd" clip-rule="evenodd" d="M18.5 37C28.7173 37 37 28.7173 37 18.5C37 8.28273 28.7173 0 18.5 0C8.28273 0 0 8.28273 0 18.5C0 28.7173 8.28273 37 18.5 37ZM28.0244 20.5732H19.5733V29.0243C19.5733 29.6912 19.0328 30.2317 18.366 30.2317C17.6992 30.2316 17.1587 29.6911 17.1586 29.0243L17.1586 20.5732L8.70745 20.5732C8.04065 20.5732 7.50017 20.0327 7.50012 19.3659C7.50017 18.6991 8.04075 18.1585 8.70744 18.1586H17.1586V9.70744C17.1586 9.04064 17.6992 8.50011 18.3659 8.50011C19.0327 8.50016 19.5732 9.04064 19.5732 9.70744V18.1586L28.0244 18.1585C28.6912 18.1586 29.2318 18.6991 29.2318 19.3659C29.2318 20.0327 28.6913 20.5732 28.0244 20.5732Z" fill="#1EA133"/>
</svg>
