<svg width="17" height="17" viewBox="0 0 17 17" fill="none" xmlns="http://www.w3.org/2000/svg">
<path d="M1.16732 9.41618C2.14646 10.6432 5.0591 13.9153 8.50469 13.9153C11.9503 13.9153 14.8629 10.6433 15.8421 9.41618C16.0526 9.14351 16.0526 8.75929 15.8421 8.49913C14.8629 7.27211 11.9503 4.00004 8.50469 4.00004C5.0591 3.98764 2.14646 7.25971 1.16732 8.48674C0.944226 8.75941 0.944226 9.14351 1.16732 9.41618ZM8.50469 5.97071C10.1531 5.97071 11.4793 7.29689 11.4793 8.94532C11.4793 10.5938 10.1531 11.9199 8.50469 11.9199C6.85626 11.9199 5.53008 10.5938 5.53008 8.94532C5.53008 7.29689 6.85626 5.97071 8.50469 5.97071Z" fill="#6B8795"/>
<path d="M8.50586 10.4326C9.32728 10.4326 9.99317 9.7667 9.99317 8.94528C9.99317 8.12387 9.32728 7.45798 8.50586 7.45798C7.68444 7.45798 7.01855 8.12387 7.01855 8.94528C7.01855 9.7667 7.68444 10.4326 8.50586 10.4326Z" fill="#6B8795"/>
</svg>
