<svg width="17" height="17" viewBox="0 0 17 17" fill="none" xmlns="http://www.w3.org/2000/svg">
<path d="M15.0842 7.59525L15.1901 7.53304C15.3961 7.40614 15.4445 7.15559 15.3019 6.97331C15.1581 6.78941 14.8751 6.74791 14.6734 6.87307C7.61398 11.2683 2.47524 7.08938 2.25936 6.90981C2.07719 6.75798 1.79012 6.76568 1.62048 6.92693C1.44999 7.08884 1.45827 7.3421 1.63861 7.49447C1.64835 7.5027 1.8091 7.63372 2.1025 7.82759L1.19821 9.15566C1.06922 9.3451 1.13688 9.5924 1.34972 9.70824C1.42249 9.74726 1.50512 9.76687 1.58507 9.76687C1.73706 9.76687 1.88504 9.69806 1.97107 9.57419L2.85527 8.27668C3.35104 8.54543 3.98675 8.8389 4.74415 9.08685L4.30838 10.3843C4.23622 10.5979 4.37117 10.8207 4.60957 10.8842L4.73953 10.9013C4.93217 10.9013 5.11227 10.7886 5.17092 10.6142L5.60244 9.33458C6.30155 9.50483 7.08366 9.61981 7.9277 9.64712V10.9322C7.9277 11.1545 8.12934 11.3341 8.37905 11.3341C8.62852 11.3341 8.83028 11.1545 8.83028 10.9322V9.63997C9.56675 9.60399 10.3473 9.49118 11.1622 9.28419L11.7178 10.5887C11.787 10.7495 11.9586 10.8479 12.1398 10.8479L12.2994 10.8225C12.5325 10.7436 12.6506 10.5118 12.562 10.3044L12.0211 9.03332C12.7632 8.78786 13.5302 8.4647 14.3224 8.03599L15.0537 8.90522C15.1427 9.01023 15.2787 9.06659 15.4145 9.06659C15.5091 9.06659 15.6037 9.04101 15.6849 8.98585C15.8849 8.85255 15.9253 8.6006 15.7764 8.42319L15.0842 7.59525Z" fill="#C6D8E1"/>
</svg>
