<svg width="31" height="30" viewBox="0 0 31 30" fill="none" xmlns="http://www.w3.org/2000/svg">
<path d="M22.1016 20.5499C21.8766 20.5499 21.6512 20.4638 21.4793 20.2914C21.1361 19.947 21.1361 19.3882 21.4793 19.0437L24.6323 15.882H12.077C11.5914 15.882 11.1973 15.487 11.1973 14.9996C11.1973 14.5123 11.5914 14.1173 12.077 14.1173H24.5801L21.4743 10.9505C21.1347 10.604 21.1379 10.0473 21.482 9.70512C21.8252 9.36323 22.3806 9.36369 22.7238 9.70788L27.3784 14.3759C27.5434 14.5413 27.636 14.7658 27.636 14.9997C27.636 15.2336 27.5434 15.4581 27.3784 15.6236L22.7238 20.2915C22.552 20.4637 22.3265 20.5499 22.1016 20.5499Z" fill="#C6D8E1"/>
<path d="M20.557 30H3.45986C2.97417 30 2.58008 29.605 2.58008 29.1177V0.882345C2.58008 0.394979 2.97417 0 3.45986 0H20.557C21.0427 0 21.4368 0.394979 21.4368 0.882345V6.0496C21.4368 6.53696 21.0427 6.93194 20.557 6.93194C20.0713 6.93194 19.6772 6.53696 19.6772 6.0496V1.76469H4.33963V28.2353H19.6772V23.9504C19.6772 23.463 20.0713 23.0681 20.557 23.0681C21.0427 23.0681 21.4368 23.463 21.4368 23.9504V29.1177C21.4369 29.605 21.0428 30 20.557 30Z" fill="#C6D8E1"/>
</svg>
